<svg width="557" height="233" viewBox="0 0 557 233" fill="none" xmlns="http://www.w3.org/2000/svg">
<rect width="557" height="233" rx="10" fill="#0D1117"/>
<path d="M24.4347 39V24.4545H29.8892C31.0066 24.4545 31.9441 24.6629 32.7017 25.0795C33.464 25.4962 34.0393 26.0691 34.4276 26.7983C34.8205 27.5227 35.017 28.3466 35.017 29.2699C35.017 30.2027 34.8205 31.0312 34.4276 31.7557C34.0346 32.4801 33.4545 33.0507 32.6875 33.4673C31.9205 33.8793 30.9759 34.0852 29.8537 34.0852H26.2386V31.919H29.4986C30.152 31.919 30.687 31.8054 31.1037 31.5781C31.5204 31.3509 31.8281 31.0384 32.027 30.6406C32.2306 30.2429 32.3324 29.786 32.3324 29.2699C32.3324 28.7538 32.2306 28.2992 32.027 27.9062C31.8281 27.5133 31.518 27.2079 31.0966 26.9901C30.6799 26.7675 30.1425 26.6562 29.4844 26.6562H27.0696V39H24.4347ZM41.8654 39.2131C40.7717 39.2131 39.8271 38.9858 39.0316 38.5312C38.2409 38.072 37.6325 37.4233 37.2063 36.5852C36.7802 35.7424 36.5671 34.7505 36.5671 33.6094C36.5671 32.4872 36.7802 31.5024 37.2063 30.6548C37.6372 29.8026 38.2385 29.1397 39.0103 28.6662C39.7821 28.188 40.6888 27.9489 41.7305 27.9489C42.4028 27.9489 43.0373 28.0578 43.6339 28.2756C44.2352 28.4886 44.7655 28.8201 45.2248 29.2699C45.6888 29.7197 46.0534 30.2926 46.3185 30.9886C46.5837 31.6799 46.7163 32.5038 46.7163 33.4602V34.2486H37.7745V32.5156H44.2518C44.247 32.0232 44.1405 31.5852 43.9322 31.2017C43.7238 30.8134 43.4326 30.508 43.0586 30.2855C42.6893 30.063 42.2584 29.9517 41.766 29.9517C41.2404 29.9517 40.7788 30.0795 40.381 30.3352C39.9833 30.5862 39.6732 30.9176 39.4506 31.3295C39.2328 31.7367 39.1216 32.1842 39.1168 32.6719V34.1847C39.1168 34.8191 39.2328 35.3636 39.4648 35.8182C39.6969 36.268 40.0212 36.6136 40.4379 36.8551C40.8545 37.0919 41.3422 37.2102 41.9009 37.2102C42.275 37.2102 42.6135 37.1581 42.9165 37.054C43.2196 36.9451 43.4824 36.7865 43.7049 36.5781C43.9274 36.3698 44.0955 36.1117 44.2092 35.804L46.6097 36.0739C46.4582 36.7083 46.1694 37.2623 45.7433 37.7358C45.3219 38.2045 44.7821 38.5691 44.1239 38.8295C43.4658 39.0852 42.7129 39.2131 41.8654 39.2131ZM51.4624 32.608V39H48.8913V28.0909H51.3487V29.9446H51.4766C51.7275 29.3338 52.1276 28.8485 52.6768 28.4886C53.2308 28.1288 53.915 27.9489 54.7294 27.9489C55.4822 27.9489 56.138 28.1098 56.6967 28.4318C57.2602 28.7538 57.6958 29.2202 58.0036 29.831C58.3161 30.4418 58.4699 31.1828 58.4652 32.054V39H55.8942V32.4517C55.8942 31.7225 55.7048 31.152 55.326 30.7401C54.9519 30.3281 54.4335 30.1222 53.7706 30.1222C53.3208 30.1222 52.9207 30.2216 52.5703 30.4205C52.2247 30.6146 51.9524 30.8963 51.7536 31.2656C51.5594 31.6349 51.4624 32.0824 51.4624 32.608ZM66.5263 28.0909V30.0795H60.255V28.0909H66.5263ZM61.8033 25.4773H64.3743V35.7188C64.3743 36.0644 64.4264 36.3295 64.5305 36.5142C64.6394 36.6941 64.7815 36.8172 64.9567 36.8835C65.1319 36.9498 65.326 36.983 65.5391 36.983C65.7 36.983 65.8468 36.9711 65.9794 36.9474C66.1167 36.9238 66.2209 36.9025 66.2919 36.8835L66.7251 38.8935C66.5878 38.9408 66.3913 38.9929 66.1357 39.0497C65.8847 39.1065 65.5769 39.1397 65.2124 39.1491C64.5684 39.1681 63.9884 39.071 63.4723 38.858C62.9562 38.6402 62.5466 38.304 62.2436 37.8494C61.9453 37.3949 61.7985 36.8267 61.8033 36.1449V25.4773ZM73.3888 39.2131C72.2951 39.2131 71.3505 38.9858 70.555 38.5312C69.7643 38.072 69.1559 37.4233 68.7298 36.5852C68.3036 35.7424 68.0906 34.7505 68.0906 33.6094C68.0906 32.4872 68.3036 31.5024 68.7298 30.6548C69.1606 29.8026 69.762 29.1397 70.5337 28.6662C71.3055 28.188 72.2122 27.9489 73.2539 27.9489C73.9263 27.9489 74.5607 28.0578 75.1573 28.2756C75.7586 28.4886 76.2889 28.8201 76.7482 29.2699C77.2122 29.7197 77.5768 30.2926 77.842 30.9886C78.1071 31.6799 78.2397 32.5038 78.2397 33.4602V34.2486H69.2979V32.5156H75.7752C75.7705 32.0232 75.6639 31.5852 75.4556 31.2017C75.2473 30.8134 74.9561 30.508 74.582 30.2855C74.2127 30.063 73.7818 29.9517 73.2894 29.9517C72.7638 29.9517 72.3022 30.0795 71.9045 30.3352C71.5067 30.5862 71.1966 30.9176 70.9741 31.3295C70.7563 31.7367 70.645 32.1842 70.6403 32.6719V34.1847C70.6403 34.8191 70.7563 35.3636 70.9883 35.8182C71.2203 36.268 71.5446 36.6136 71.9613 36.8551C72.378 37.0919 72.8656 37.2102 73.4244 37.2102C73.7984 37.2102 74.137 37.1581 74.44 37.054C74.743 36.9451 75.0058 36.7865 75.2283 36.5781C75.4509 36.3698 75.619 36.1117 75.7326 35.804L78.1332 36.0739C77.9817 36.7083 77.6928 37.2623 77.2667 37.7358C76.8453 38.2045 76.3055 38.5691 75.6474 38.8295C74.9892 39.0852 74.2364 39.2131 73.3888 39.2131ZM89.0369 30.9744L86.6932 31.2301C86.6269 30.9934 86.5109 30.7708 86.3452 30.5625C86.1842 30.3542 85.9664 30.1861 85.6918 30.0582C85.4171 29.9304 85.081 29.8665 84.6832 29.8665C84.1482 29.8665 83.6984 29.9825 83.3338 30.2145C82.974 30.4465 82.7964 30.7472 82.8011 31.1165C82.7964 31.4337 82.9124 31.6918 83.1491 31.8906C83.3906 32.0895 83.7884 32.2528 84.3423 32.3807L86.2031 32.7784C87.2353 33.0009 88.0024 33.3537 88.5043 33.8366C89.0109 34.3196 89.2666 34.9517 89.2713 35.733C89.2666 36.4195 89.0653 37.0256 88.6676 37.5511C88.2746 38.072 87.7277 38.4792 87.027 38.7727C86.3262 39.0663 85.5213 39.2131 84.6122 39.2131C83.277 39.2131 82.2022 38.9337 81.3878 38.375C80.5734 37.8116 80.0881 37.0279 79.9318 36.0241L82.4389 35.7827C82.5526 36.2751 82.794 36.6468 83.1634 36.8977C83.5327 37.1487 84.0133 37.2741 84.6051 37.2741C85.2159 37.2741 85.706 37.1487 86.0753 36.8977C86.4493 36.6468 86.6364 36.3366 86.6364 35.9673C86.6364 35.6548 86.5156 35.3968 86.2741 35.1932C86.0374 34.9896 85.6681 34.8333 85.1662 34.7244L83.3054 34.3338C82.259 34.116 81.4848 33.7491 80.983 33.233C80.4811 32.7121 80.2325 32.054 80.2372 31.2585C80.2325 30.5862 80.4148 30.0038 80.7841 29.5114C81.1581 29.0142 81.6766 28.6307 82.3395 28.3608C83.0071 28.0862 83.7765 27.9489 84.6477 27.9489C85.9261 27.9489 86.9323 28.2211 87.6662 28.7656C88.4048 29.3101 88.8617 30.0464 89.0369 30.9744ZM96.8388 28.0909V30.0795H90.5675V28.0909H96.8388ZM92.1158 25.4773H94.6868V35.7188C94.6868 36.0644 94.7389 36.3295 94.843 36.5142C94.9519 36.6941 95.094 36.8172 95.2692 36.8835C95.4444 36.9498 95.6385 36.983 95.8516 36.983C96.0125 36.983 96.1593 36.9711 96.2919 36.9474C96.4292 36.9238 96.5334 36.9025 96.6044 36.8835L97.0376 38.8935C96.9003 38.9408 96.7038 38.9929 96.4482 39.0497C96.1972 39.1065 95.8894 39.1397 95.5249 39.1491C94.8809 39.1681 94.3009 39.071 93.7848 38.858C93.2687 38.6402 92.8591 38.304 92.5561 37.8494C92.2578 37.3949 92.111 36.8267 92.1158 36.1449V25.4773ZM105.931 39H103.119L108.24 24.4545H111.493L116.62 39H113.808L109.923 27.4375H109.809L105.931 39ZM106.024 33.2969H113.694V35.4134H106.024V33.2969ZM122.849 39.2131C121.76 39.2131 120.825 38.974 120.044 38.4957C119.267 38.0175 118.668 37.357 118.247 36.5142C117.83 35.6667 117.622 34.6913 117.622 33.5881C117.622 32.4801 117.835 31.5024 118.261 30.6548C118.687 29.8026 119.288 29.1397 120.065 28.6662C120.846 28.188 121.77 27.9489 122.835 27.9489C123.72 27.9489 124.504 28.1122 125.186 28.4389C125.872 28.7609 126.419 29.2178 126.826 29.8097C127.234 30.3968 127.466 31.0833 127.522 31.8693H125.065C124.966 31.3437 124.729 30.9058 124.355 30.5554C123.985 30.2003 123.491 30.0227 122.87 30.0227C122.345 30.0227 121.883 30.1648 121.485 30.4489C121.088 30.7282 120.778 31.1307 120.555 31.6562C120.337 32.1818 120.228 32.8116 120.228 33.5455C120.228 34.2888 120.337 34.928 120.555 35.4631C120.773 35.9934 121.078 36.4029 121.471 36.6918C121.869 36.9759 122.335 37.1179 122.87 37.1179C123.249 37.1179 123.588 37.0469 123.886 36.9048C124.189 36.758 124.442 36.5473 124.646 36.2727C124.85 35.9981 124.989 35.6643 125.065 35.2713H127.522C127.461 36.0431 127.234 36.7273 126.841 37.3239C126.448 37.9157 125.913 38.3797 125.235 38.7159C124.558 39.0473 123.763 39.2131 122.849 39.2131ZM135.081 28.0909V30.0795H128.81V28.0909H135.081ZM130.358 25.4773H132.929V35.7188C132.929 36.0644 132.981 36.3295 133.085 36.5142C133.194 36.6941 133.336 36.8172 133.511 36.8835C133.687 36.9498 133.881 36.983 134.094 36.983C134.255 36.983 134.402 36.9711 134.534 36.9474C134.671 36.9238 134.776 36.9025 134.847 36.8835L135.28 38.8935C135.143 38.9408 134.946 38.9929 134.69 39.0497C134.439 39.1065 134.132 39.1397 133.767 39.1491C133.123 39.1681 132.543 39.071 132.027 38.858C131.511 38.6402 131.101 38.304 130.798 37.8494C130.5 37.3949 130.353 36.8267 130.358 36.1449V25.4773ZM137.231 39V28.0909H139.802V39H137.231ZM138.524 26.5426C138.117 26.5426 137.766 26.4077 137.473 26.1378C137.179 25.8632 137.032 25.5341 137.032 25.1506C137.032 24.7623 137.179 24.4332 137.473 24.1634C137.766 23.8887 138.117 23.7514 138.524 23.7514C138.936 23.7514 139.286 23.8887 139.575 24.1634C139.868 24.4332 140.015 24.7623 140.015 25.1506C140.015 25.5341 139.868 25.8632 139.575 26.1378C139.286 26.4077 138.936 26.5426 138.524 26.5426ZM152.19 28.0909L148.305 39H145.464L141.58 28.0909H144.321L146.828 36.1946H146.942L149.456 28.0909H152.19ZM153.969 39V28.0909H156.54V39H153.969ZM155.262 26.5426C154.855 26.5426 154.504 26.4077 154.211 26.1378C153.917 25.8632 153.771 25.5341 153.771 25.1506C153.771 24.7623 153.917 24.4332 154.211 24.1634C154.504 23.8887 154.855 23.7514 155.262 23.7514C155.674 23.7514 156.024 23.8887 156.313 24.1634C156.607 24.4332 156.754 24.7623 156.754 25.1506C156.754 25.5341 156.607 25.8632 156.313 26.1378C156.024 26.4077 155.674 26.5426 155.262 26.5426ZM164.632 28.0909V30.0795H158.36V28.0909H164.632ZM159.909 25.4773H162.48V35.7188C162.48 36.0644 162.532 36.3295 162.636 36.5142C162.745 36.6941 162.887 36.8172 163.062 36.8835C163.237 36.9498 163.431 36.983 163.645 36.983C163.806 36.983 163.952 36.9711 164.085 36.9474C164.222 36.9238 164.326 36.9025 164.397 36.8835L164.831 38.8935C164.693 38.9408 164.497 38.9929 164.241 39.0497C163.99 39.1065 163.682 39.1397 163.318 39.1491C162.674 39.1681 162.094 39.071 161.578 38.858C161.062 38.6402 160.652 38.304 160.349 37.8494C160.051 37.3949 159.904 36.8267 159.909 36.1449V25.4773ZM168.38 43.0909C168.03 43.0909 167.705 43.0625 167.407 43.0057C167.113 42.9536 166.879 42.892 166.704 42.821L167.3 40.8182C167.674 40.9271 168.008 40.9792 168.302 40.9744C168.595 40.9697 168.853 40.8774 169.076 40.6974C169.303 40.5223 169.495 40.2287 169.651 39.8168L169.871 39.2273L165.915 28.0909H168.643L171.157 36.3295H171.271L173.792 28.0909H176.526L172.158 40.321C171.955 40.8987 171.685 41.3935 171.349 41.8054C171.013 42.2221 170.601 42.5393 170.113 42.7571C169.63 42.9796 169.052 43.0909 168.38 43.0909ZM196.377 31.7273C196.377 33.2945 196.084 34.6368 195.496 35.7543C194.914 36.867 194.119 37.7192 193.11 38.3111C192.106 38.9029 190.968 39.1989 189.694 39.1989C188.42 39.1989 187.279 38.9029 186.271 38.3111C185.267 37.7145 184.471 36.8598 183.884 35.7472C183.302 34.6297 183.011 33.2898 183.011 31.7273C183.011 30.16 183.302 28.8201 183.884 27.7074C184.471 26.59 185.267 25.7353 186.271 25.1435C187.279 24.5516 188.42 24.2557 189.694 24.2557C190.968 24.2557 192.106 24.5516 193.11 25.1435C194.119 25.7353 194.914 26.59 195.496 27.7074C196.084 28.8201 196.377 30.16 196.377 31.7273ZM193.728 31.7273C193.728 30.6241 193.555 29.6937 193.21 28.9361C192.869 28.1738 192.395 27.5985 191.789 27.2102C191.183 26.8172 190.485 26.6207 189.694 26.6207C188.903 26.6207 188.205 26.8172 187.599 27.2102C186.993 27.5985 186.517 28.1738 186.171 28.9361C185.83 29.6937 185.66 30.6241 185.66 31.7273C185.66 32.8305 185.83 33.7633 186.171 34.5256C186.517 35.2831 186.993 35.8584 187.599 36.2514C188.205 36.6397 188.903 36.8338 189.694 36.8338C190.485 36.8338 191.183 36.6397 191.789 36.2514C192.395 35.8584 192.869 35.2831 193.21 34.5256C193.555 33.7633 193.728 32.8305 193.728 31.7273ZM208.499 28.0909L204.614 39H201.773L197.888 28.0909H200.63L203.137 36.1946H203.25L205.765 28.0909H208.499ZM214.737 39.2131C213.643 39.2131 212.698 38.9858 211.903 38.5312C211.112 38.072 210.504 37.4233 210.077 36.5852C209.651 35.7424 209.438 34.7505 209.438 33.6094C209.438 32.4872 209.651 31.5024 210.077 30.6548C210.508 29.8026 211.11 29.1397 211.881 28.6662C212.653 28.188 213.56 27.9489 214.602 27.9489C215.274 27.9489 215.908 28.0578 216.505 28.2756C217.106 28.4886 217.637 28.8201 218.096 29.2699C218.56 29.7197 218.924 30.2926 219.19 30.9886C219.455 31.6799 219.587 32.5038 219.587 33.4602V34.2486H210.646V32.5156H217.123C217.118 32.0232 217.012 31.5852 216.803 31.2017C216.595 30.8134 216.304 30.508 215.93 30.2855C215.56 30.063 215.129 29.9517 214.637 29.9517C214.112 29.9517 213.65 30.0795 213.252 30.3352C212.854 30.5862 212.544 30.9176 212.322 31.3295C212.104 31.7367 211.993 32.1842 211.988 32.6719V34.1847C211.988 34.8191 212.104 35.3636 212.336 35.8182C212.568 36.268 212.892 36.6136 213.309 36.8551C213.726 37.0919 214.213 37.2102 214.772 37.2102C215.146 37.2102 215.485 37.1581 215.788 37.054C216.091 36.9451 216.353 36.7865 216.576 36.5781C216.799 36.3698 216.967 36.1117 217.08 35.804L219.481 36.0739C219.329 36.7083 219.04 37.2623 218.614 37.7358C218.193 38.2045 217.653 38.5691 216.995 38.8295C216.337 39.0852 215.584 39.2131 214.737 39.2131ZM221.762 39V28.0909H224.255V29.9091H224.369C224.568 29.2794 224.909 28.794 225.392 28.4531C225.879 28.1075 226.436 27.9347 227.061 27.9347C227.203 27.9347 227.361 27.9418 227.537 27.956C227.717 27.9654 227.866 27.982 227.984 28.0057V30.3707C227.875 30.3329 227.702 30.2997 227.466 30.2713C227.234 30.2382 227.009 30.2216 226.791 30.2216C226.322 30.2216 225.901 30.3234 225.527 30.527C225.157 30.7259 224.866 31.0028 224.653 31.358C224.44 31.7131 224.333 32.1226 224.333 32.5866V39H221.762ZM239.768 28.0909L235.884 39H233.043L229.158 28.0909H231.899L234.406 36.1946H234.52L237.034 28.0909H239.768ZM241.548 39V28.0909H244.119V39H241.548ZM242.84 26.5426C242.433 26.5426 242.083 26.4077 241.789 26.1378C241.496 25.8632 241.349 25.5341 241.349 25.1506C241.349 24.7623 241.496 24.4332 241.789 24.1634C242.083 23.8887 242.433 23.7514 242.84 23.7514C243.252 23.7514 243.603 23.8887 243.891 24.1634C244.185 24.4332 244.332 24.7623 244.332 25.1506C244.332 25.5341 244.185 25.8632 243.891 26.1378C243.603 26.4077 243.252 26.5426 242.84 26.5426ZM251.592 39.2131C250.498 39.2131 249.554 38.9858 248.758 38.5312C247.967 38.072 247.359 37.4233 246.933 36.5852C246.507 35.7424 246.294 34.7505 246.294 33.6094C246.294 32.4872 246.507 31.5024 246.933 30.6548C247.364 29.8026 247.965 29.1397 248.737 28.6662C249.509 28.188 250.415 27.9489 251.457 27.9489C252.129 27.9489 252.764 28.0578 253.36 28.2756C253.962 28.4886 254.492 28.8201 254.951 29.2699C255.415 29.7197 255.78 30.2926 256.045 30.9886C256.31 31.6799 256.443 32.5038 256.443 33.4602V34.2486H247.501V32.5156H253.978C253.974 32.0232 253.867 31.5852 253.659 31.2017C253.45 30.8134 253.159 30.508 252.785 30.2855C252.416 30.063 251.985 29.9517 251.493 29.9517C250.967 29.9517 250.505 30.0795 250.108 30.3352C249.71 30.5862 249.4 30.9176 249.177 31.3295C248.959 31.7367 248.848 32.1842 248.843 32.6719V34.1847C248.843 34.8191 248.959 35.3636 249.191 35.8182C249.423 36.268 249.748 36.6136 250.164 36.8551C250.581 37.0919 251.069 37.2102 251.627 37.2102C252.002 37.2102 252.34 37.1581 252.643 37.054C252.946 36.9451 253.209 36.7865 253.431 36.5781C253.654 36.3698 253.822 36.1117 253.936 35.804L256.336 36.0739C256.185 36.7083 255.896 37.2623 255.47 37.7358C255.048 38.2045 254.509 38.5691 253.85 38.8295C253.192 39.0852 252.44 39.2131 251.592 39.2131ZM260.811 39L257.728 28.0909H260.349L262.267 35.7614H262.366L264.326 28.0909H266.919L268.879 35.7188H268.985L270.875 28.0909H273.502L270.413 39H267.735L265.69 31.6278H265.541L263.495 39H260.811Z" fill="#628FDB"/>
<path d="M490 138C490 165.614 467.614 188 440 188C412.386 188 390 165.614 390 138C390 110.386 412.386 88 440 88C467.614 88 490 110.386 490 138ZM398 138C398 161.196 416.804 180 440 180C463.196 180 482 161.196 482 138C482 114.804 463.196 96 440 96C416.804 96 398 114.804 398 138Z" fill="#2B3752"/>
<path d="M486 138C488.209 138 490.017 139.794 489.84 141.996C489.124 150.929 486.019 159.507 480.852 166.829C479.578 168.634 477.042 168.855 475.344 167.441V167.441C473.647 166.027 473.435 163.515 474.681 161.691C478.682 155.833 481.135 149.056 481.81 141.994C482.02 139.795 483.791 138 486 138V138Z" fill="#628FDB"/>
<path d="M411.398 144H408.375L412.301 132.364H416.045L419.972 144H416.949L414.216 135.295H414.125L411.398 144ZM410.994 139.42H417.312V141.557H410.994V139.42ZM431.24 136.58H428.399C428.361 136.288 428.284 136.025 428.166 135.79C428.049 135.555 427.893 135.354 427.7 135.188C427.507 135.021 427.278 134.894 427.013 134.807C426.751 134.716 426.462 134.67 426.143 134.67C425.579 134.67 425.092 134.809 424.683 135.085C424.278 135.362 423.965 135.761 423.746 136.284C423.53 136.807 423.422 137.439 423.422 138.182C423.422 138.955 423.532 139.602 423.751 140.125C423.975 140.644 424.287 141.036 424.689 141.301C425.094 141.562 425.573 141.693 426.126 141.693C426.437 141.693 426.719 141.653 426.973 141.574C427.231 141.494 427.456 141.379 427.649 141.227C427.846 141.072 428.007 140.884 428.132 140.665C428.261 140.441 428.35 140.189 428.399 139.909L431.24 139.926C431.191 140.441 431.041 140.949 430.791 141.449C430.545 141.949 430.206 142.405 429.774 142.818C429.342 143.227 428.816 143.553 428.195 143.795C427.577 144.038 426.869 144.159 426.07 144.159C425.017 144.159 424.073 143.928 423.24 143.466C422.411 143 421.755 142.322 421.274 141.432C420.793 140.542 420.553 139.458 420.553 138.182C420.553 136.902 420.797 135.816 421.286 134.926C421.774 134.036 422.435 133.36 423.268 132.898C424.102 132.436 425.036 132.205 426.07 132.205C426.774 132.205 427.426 132.303 428.024 132.5C428.623 132.693 429.149 132.977 429.604 133.352C430.058 133.723 430.428 134.18 430.712 134.722C430.996 135.263 431.172 135.883 431.24 136.58ZM432.469 134.648V132.364H442.304V134.648H438.776V144H436.003V134.648H432.469ZM446.49 132.364V144H443.678V132.364H446.49ZM450.898 132.364L453.5 140.886H453.597L456.199 132.364H459.347L455.42 144H451.676L447.75 132.364H450.898ZM460.599 144V132.364H468.713V134.648H463.412V137.034H468.298V139.324H463.412V141.716H468.713V144H460.599Z" fill="#38BDAE"/>
<g clip-path="url(#clip0_877_296)">
<path d="M27 79V62.8C27 62.6603 27.0361 62.5225 27.1056 62.3975C27.175 62.2725 27.2758 62.1638 27.4 62.08C28.4386 61.379 29.7018 61 31 61C34 61 36 62.8 38.333 62.8C39.6663 62.8 40.6887 62.56 41.4 62.08C41.5486 61.9797 41.7252 61.9186 41.9102 61.9036C42.0952 61.8886 42.2811 61.9203 42.4472 61.995C42.6133 62.0698 42.753 62.1847 42.8507 62.3268C42.9483 62.469 43 62.6329 43 62.8V71.8C43 71.9397 42.9639 72.0775 42.8944 72.2025C42.825 72.3275 42.7242 72.4362 42.6 72.52C41.5614 73.221 40.2982 73.6 39 73.6C36 73.6 34 71.8 31 71.8C29.5241 71.8 28.1 72.2896 27 73.1752" stroke="#A17BCD" stroke-width="2" stroke-linecap="round" stroke-linejoin="round"/>
<path d="M64.108 68.2898H61.983C61.9223 67.9413 61.8106 67.6326 61.6477 67.3636C61.4848 67.0909 61.2822 66.8598 61.0398 66.6705C60.7973 66.4811 60.5208 66.339 60.2102 66.2443C59.9034 66.1458 59.572 66.0966 59.2159 66.0966C58.5833 66.0966 58.0227 66.2557 57.5341 66.5739C57.0455 66.8883 56.6629 67.3504 56.3864 67.9602C56.1098 68.5663 55.9716 69.3068 55.9716 70.1818C55.9716 71.072 56.1098 71.822 56.3864 72.4318C56.6667 73.0379 57.0492 73.4962 57.5341 73.8068C58.0227 74.1136 58.5814 74.267 59.2102 74.267C59.5587 74.267 59.8845 74.2216 60.1875 74.1307C60.4943 74.036 60.7689 73.8977 61.0114 73.7159C61.2576 73.5341 61.464 73.3106 61.6307 73.0455C61.8011 72.7803 61.9186 72.4773 61.983 72.1364L64.108 72.1477C64.0284 72.7008 63.8561 73.2197 63.5909 73.7045C63.3295 74.1894 62.9867 74.6174 62.5625 74.9886C62.1383 75.3561 61.642 75.6439 61.0739 75.8523C60.5057 76.0568 59.875 76.1591 59.1818 76.1591C58.1591 76.1591 57.2462 75.9223 56.4432 75.4489C55.6402 74.9754 55.0076 74.2917 54.5455 73.3977C54.0833 72.5038 53.8523 71.4318 53.8523 70.1818C53.8523 68.928 54.0852 67.8561 54.5511 66.9659C55.017 66.072 55.6515 65.3883 56.4545 64.9148C57.2576 64.4413 58.1667 64.2045 59.1818 64.2045C59.8295 64.2045 60.4318 64.2955 60.9886 64.4773C61.5455 64.6591 62.0417 64.9261 62.4773 65.2784C62.9129 65.6269 63.2708 66.0549 63.5511 66.5625C63.8352 67.0663 64.0208 67.642 64.108 68.2898ZM65.527 66.1307V64.3636H74.8111V66.1307H71.2145V76H69.1236V66.1307H65.527ZM76.6009 76V64.3636H84.0554V66.1307H78.7088V69.2898H83.544V71.0568H78.7088V76H76.6009ZM92.3935 76L89.1094 64.3636H91.3764L93.473 72.9148H93.581L95.8196 64.3636H97.8821L100.126 72.9205H100.229L102.325 64.3636H104.592L101.308 76H99.2287L96.8991 67.8352H96.8082L94.473 76H92.3935ZM105.416 76V67.2727H107.411V68.7273H107.501C107.661 68.2235 107.933 67.8352 108.32 67.5625C108.71 67.286 109.155 67.1477 109.655 67.1477C109.768 67.1477 109.895 67.1534 110.036 67.1648C110.179 67.1723 110.299 67.1856 110.393 67.2045V69.0966C110.306 69.0663 110.168 69.0398 109.979 69.017C109.793 68.9905 109.613 68.9773 109.439 68.9773C109.064 68.9773 108.727 69.0587 108.428 69.2216C108.132 69.3807 107.899 69.6023 107.729 69.8864C107.558 70.1705 107.473 70.4981 107.473 70.8693V76H105.416ZM111.76 76V67.2727H113.817V76H111.76ZM112.794 66.0341C112.468 66.0341 112.188 65.9261 111.953 65.7102C111.718 65.4905 111.601 65.2273 111.601 64.9205C111.601 64.6098 111.718 64.3466 111.953 64.1307C112.188 63.911 112.468 63.8011 112.794 63.8011C113.124 63.8011 113.404 63.911 113.635 64.1307C113.87 64.3466 113.987 64.6098 113.987 64.9205C113.987 65.2273 113.87 65.4905 113.635 65.7102C113.404 65.9261 113.124 66.0341 112.794 66.0341ZM120.29 67.2727V68.8636H115.273V67.2727H120.29ZM116.511 65.1818H118.568V73.375C118.568 73.6515 118.61 73.8636 118.693 74.0114C118.78 74.1553 118.894 74.2538 119.034 74.3068C119.174 74.3598 119.33 74.3864 119.5 74.3864C119.629 74.3864 119.746 74.3769 119.852 74.358C119.962 74.339 120.045 74.322 120.102 74.3068L120.449 75.9148C120.339 75.9527 120.182 75.9943 119.977 76.0398C119.777 76.0852 119.53 76.1117 119.239 76.1193C118.723 76.1345 118.259 76.0568 117.847 75.8864C117.434 75.7121 117.106 75.4432 116.864 75.0795C116.625 74.7159 116.508 74.2614 116.511 73.7159V65.1818ZM125.78 76.1705C124.905 76.1705 124.149 75.9886 123.513 75.625C122.88 75.2576 122.393 74.7386 122.053 74.0682C121.712 73.3939 121.541 72.6004 121.541 71.6875C121.541 70.7898 121.712 70.0019 122.053 69.3239C122.397 68.642 122.878 68.1117 123.496 67.733C124.113 67.3504 124.839 67.1591 125.672 67.1591C126.21 67.1591 126.717 67.2462 127.195 67.4205C127.676 67.5909 128.1 67.8561 128.467 68.2159C128.839 68.5758 129.13 69.0341 129.342 69.5909C129.554 70.1439 129.661 70.803 129.661 71.5682V72.1989H122.507V70.8125H127.689C127.685 70.4186 127.6 70.0682 127.433 69.7614C127.267 69.4508 127.034 69.2064 126.734 69.0284C126.439 68.8504 126.094 68.7614 125.7 68.7614C125.28 68.7614 124.911 68.8636 124.592 69.0682C124.274 69.2689 124.026 69.5341 123.848 69.8636C123.674 70.1894 123.585 70.5473 123.581 70.9375V72.1477C123.581 72.6553 123.674 73.0909 123.859 73.4545C124.045 73.8144 124.304 74.0909 124.638 74.2841C124.971 74.4735 125.361 74.5682 125.808 74.5682C126.107 74.5682 126.378 74.5265 126.621 74.4432C126.863 74.3561 127.073 74.2292 127.251 74.0625C127.429 73.8958 127.564 73.6894 127.655 73.4432L129.575 73.6591C129.454 74.1667 129.223 74.6098 128.882 74.9886C128.545 75.3636 128.113 75.6553 127.587 75.8636C127.06 76.0682 126.458 76.1705 125.78 76.1705ZM136.963 72.3295V67.2727H139.02V76H137.026V74.4489H136.935C136.738 74.9375 136.414 75.3371 135.963 75.6477C135.516 75.9583 134.965 76.1136 134.31 76.1136C133.738 76.1136 133.232 75.9867 132.793 75.733C132.357 75.4754 132.016 75.1023 131.77 74.6136C131.524 74.1212 131.401 73.5265 131.401 72.8295V67.2727H133.457V72.5114C133.457 73.0644 133.609 73.5038 133.912 73.8295C134.215 74.1553 134.613 74.3182 135.105 74.3182C135.408 74.3182 135.702 74.2443 135.986 74.0966C136.27 73.9489 136.503 73.7292 136.685 73.4375C136.87 73.142 136.963 72.7727 136.963 72.3295ZM141.135 79.2727V67.2727H143.158V68.7159H143.277C143.383 68.5038 143.533 68.2784 143.726 68.0398C143.919 67.7973 144.18 67.5909 144.51 67.4205C144.839 67.2462 145.26 67.1591 145.771 67.1591C146.446 67.1591 147.054 67.3314 147.595 67.6761C148.141 68.017 148.572 68.5227 148.891 69.1932C149.213 69.8598 149.374 70.678 149.374 71.6477C149.374 72.6061 149.216 73.4205 148.902 74.0909C148.588 74.7614 148.16 75.2727 147.618 75.625C147.076 75.9773 146.463 76.1534 145.777 76.1534C145.277 76.1534 144.862 76.0701 144.533 75.9034C144.203 75.7367 143.938 75.536 143.737 75.3011C143.54 75.0625 143.387 74.8371 143.277 74.625H143.192V79.2727H141.135ZM143.152 71.6364C143.152 72.2008 143.232 72.6951 143.391 73.1193C143.554 73.5436 143.786 73.875 144.089 74.1136C144.396 74.3485 144.768 74.4659 145.203 74.4659C145.658 74.4659 146.038 74.3447 146.345 74.1023C146.652 73.8561 146.883 73.5208 147.038 73.0966C147.197 72.6686 147.277 72.1818 147.277 71.6364C147.277 71.0947 147.199 70.6136 147.044 70.1932C146.889 69.7727 146.658 69.4432 146.351 69.2045C146.044 68.9659 145.661 68.8466 145.203 68.8466C144.764 68.8466 144.391 68.9621 144.084 69.1932C143.777 69.4242 143.544 69.7481 143.385 70.1648C143.23 70.5814 143.152 71.072 143.152 71.6364ZM158.033 69.5795L156.158 69.7841C156.105 69.5947 156.012 69.4167 155.879 69.25C155.75 69.0833 155.576 68.9489 155.357 68.8466C155.137 68.7443 154.868 68.6932 154.55 68.6932C154.122 68.6932 153.762 68.786 153.47 68.9716C153.182 69.1572 153.04 69.3977 153.044 69.6932C153.04 69.947 153.133 70.1534 153.322 70.3125C153.516 70.4716 153.834 70.6023 154.277 70.7045L155.766 71.0227C156.591 71.2008 157.205 71.483 157.607 71.8693C158.012 72.2557 158.216 72.7614 158.22 73.3864C158.216 73.9356 158.055 74.4205 157.737 74.8409C157.423 75.2576 156.985 75.5833 156.425 75.8182C155.864 76.053 155.22 76.1705 154.493 76.1705C153.425 76.1705 152.565 75.947 151.913 75.5C151.262 75.0492 150.874 74.4223 150.749 73.6193L152.754 73.4261C152.845 73.8201 153.038 74.1174 153.334 74.3182C153.629 74.5189 154.014 74.6193 154.487 74.6193C154.976 74.6193 155.368 74.5189 155.663 74.3182C155.963 74.1174 156.112 73.8693 156.112 73.5739C156.112 73.3239 156.016 73.1174 155.822 72.9545C155.633 72.7917 155.338 72.6667 154.936 72.5795L153.447 72.267C152.61 72.0928 151.991 71.7992 151.589 71.3864C151.188 70.9697 150.989 70.4432 150.993 69.8068C150.989 69.2689 151.135 68.803 151.43 68.4091C151.73 68.0114 152.144 67.7045 152.675 67.4886C153.209 67.2689 153.824 67.1591 154.521 67.1591C155.544 67.1591 156.349 67.3769 156.936 67.8125C157.527 68.2481 157.893 68.8371 158.033 69.5795ZM161.183 76.125C160.839 76.125 160.543 76.0038 160.297 75.7614C160.051 75.5189 159.929 75.2235 159.933 74.875C159.929 74.5341 160.051 74.2424 160.297 74C160.543 73.7576 160.839 73.6364 161.183 73.6364C161.517 73.6364 161.806 73.7576 162.053 74C162.303 74.2424 162.429 74.5341 162.433 74.875C162.429 75.1061 162.369 75.3163 162.251 75.5057C162.138 75.6951 161.986 75.8466 161.797 75.9602C161.611 76.0701 161.407 76.125 161.183 76.125ZM161.183 69.8977C160.839 69.8977 160.543 69.7765 160.297 69.5341C160.051 69.2879 159.929 68.9924 159.933 68.6477C159.929 68.3068 160.051 68.0152 160.297 67.7727C160.543 67.5265 160.839 67.4034 161.183 67.4034C161.517 67.4034 161.806 67.5265 162.053 67.7727C162.303 68.0152 162.429 68.3068 162.433 68.6477C162.429 68.875 162.369 69.0833 162.251 69.2727C162.138 69.4621 161.986 69.6136 161.797 69.7273C161.611 69.8409 161.407 69.8977 161.183 69.8977Z" fill="#38BDAE"/>
<path d="M233.335 75.7216C232.4 75.7216 231.597 75.4848 230.926 75.0114C230.259 74.5341 229.746 73.8466 229.386 72.9489C229.03 72.0473 228.852 70.9621 228.852 69.6932C228.856 68.4242 229.036 67.3447 229.392 66.4545C229.752 65.5606 230.265 64.8788 230.932 64.4091C231.602 63.9394 232.403 63.7045 233.335 63.7045C234.267 63.7045 235.068 63.9394 235.739 64.4091C236.409 64.8788 236.922 65.5606 237.278 66.4545C237.638 67.3485 237.818 68.428 237.818 69.6932C237.818 70.9659 237.638 72.053 237.278 72.9545C236.922 73.8523 236.409 74.5379 235.739 75.0114C235.072 75.4848 234.271 75.7216 233.335 75.7216ZM233.335 73.9432C234.063 73.9432 234.636 73.5852 235.057 72.8693C235.481 72.1496 235.693 71.0909 235.693 69.6932C235.693 68.7689 235.597 67.9924 235.403 67.3636C235.21 66.7348 234.938 66.2614 234.585 65.9432C234.233 65.6212 233.816 65.4602 233.335 65.4602C232.612 65.4602 232.04 65.8201 231.619 66.5398C231.199 67.2557 230.987 68.3068 230.983 69.6932C230.979 70.6212 231.072 71.4015 231.261 72.0341C231.455 72.6667 231.727 73.1439 232.08 73.4659C232.432 73.7841 232.85 73.9432 233.335 73.9432Z" fill="#38BDAE"/>
</g>
<g clip-path="url(#clip1_877_296)">
<g clip-path="url(#clip2_877_296)">
<path d="M41.5 103.333V96.6663C41.4997 96.374 41.4225 96.0869 41.2763 95.8339C41.13 95.5809 40.9198 95.3707 40.6667 95.2246L34.8333 91.8913C34.58 91.745 34.2926 91.668 34 91.668C33.7074 91.668 33.42 91.745 33.1667 91.8913L27.3333 95.2246C27.0802 95.3707 26.87 95.5809 26.7237 95.8339C26.5775 96.0869 26.5003 96.374 26.5 96.6663V103.333C26.5003 103.625 26.5775 103.912 26.7237 104.165C26.87 104.418 27.0802 104.628 27.3333 104.775L33.1667 108.108C33.42 108.254 33.7074 108.331 34 108.331C34.2926 108.331 34.58 108.254 34.8333 108.108L40.6667 104.775C40.9198 104.628 41.13 104.418 41.2763 104.165C41.4225 103.912 41.4997 103.625 41.5 103.333Z" stroke="#A17BCD" stroke-width="1.5" stroke-linecap="round" stroke-linejoin="round"/>
<path d="M30.25 93.5078L34 95.6745L37.75 93.5078" stroke="#A17BCD" stroke-width="1.5" stroke-linecap="round" stroke-linejoin="round"/>
<path d="M30.25 106.492V102.167L26.5 100" stroke="#A17BCD" stroke-width="1.5" stroke-linecap="round" stroke-linejoin="round"/>
<path d="M41.5 100L37.75 102.167V106.492" stroke="#A17BCD" stroke-width="1.5" stroke-linecap="round" stroke-linejoin="round"/>
<path d="M26.7251 95.8008L34.0001 100.009L41.2751 95.8008" stroke="#A17BCD" stroke-width="1.5" stroke-linecap="round" stroke-linejoin="round"/>
<path d="M34 108.4V100" stroke="#A17BCD" stroke-width="1.5" stroke-linecap="round" stroke-linejoin="round"/>
<path d="M55.1477 105V93.3636H57.2557V98.2898H62.6477V93.3636H64.7614V105H62.6477V100.057H57.2557V105H55.1477ZM66.5426 95.1307V93.3636H75.8267V95.1307H72.2301V105H70.1392V95.1307H66.5426ZM77.6165 105V93.3636H82.071C82.9119 93.3636 83.6108 93.4962 84.1676 93.7614C84.7282 94.0227 85.1468 94.3807 85.4233 94.8352C85.7036 95.2898 85.8438 95.8049 85.8438 96.3807C85.8438 96.8542 85.7528 97.2595 85.571 97.5966C85.3892 97.9299 85.1449 98.2008 84.8381 98.4091C84.5312 98.6174 84.1884 98.767 83.8097 98.858V98.9716C84.2225 98.9943 84.6184 99.1212 84.9972 99.3523C85.3797 99.5795 85.6922 99.9015 85.9347 100.318C86.1771 100.735 86.2983 101.239 86.2983 101.83C86.2983 102.432 86.1525 102.973 85.8608 103.455C85.5691 103.932 85.1297 104.309 84.5426 104.585C83.9555 104.862 83.2169 105 82.3267 105H77.6165ZM79.7244 103.239H81.9915C82.7566 103.239 83.3078 103.093 83.6449 102.801C83.9858 102.506 84.1562 102.127 84.1562 101.665C84.1562 101.32 84.071 101.009 83.9006 100.733C83.7301 100.453 83.4877 100.233 83.1733 100.074C82.8589 99.911 82.4839 99.8295 82.0483 99.8295H79.7244V103.239ZM79.7244 98.3125H81.8097C82.1733 98.3125 82.5009 98.2462 82.7926 98.1136C83.0843 97.9773 83.3134 97.786 83.4801 97.5398C83.6506 97.2898 83.7358 96.9943 83.7358 96.6534C83.7358 96.2027 83.5767 95.8314 83.2585 95.5398C82.9441 95.2481 82.4763 95.1023 81.8551 95.1023H79.7244V98.3125ZM96.7599 92.8182L93.0099 106.75H91.2088L94.9588 92.8182H96.7599ZM102.132 105V93.3636H104.24V103.233H109.365V105H102.132ZM113.615 105.176C113.062 105.176 112.564 105.078 112.121 104.881C111.681 104.68 111.333 104.384 111.075 103.994C110.821 103.604 110.695 103.123 110.695 102.551C110.695 102.059 110.786 101.652 110.967 101.33C111.149 101.008 111.397 100.75 111.712 100.557C112.026 100.364 112.38 100.218 112.774 100.119C113.172 100.017 113.583 99.9432 114.007 99.8977C114.518 99.8447 114.933 99.7973 115.251 99.7557C115.57 99.7102 115.801 99.642 115.945 99.5511C116.092 99.4564 116.166 99.3106 116.166 99.1136V99.0795C116.166 98.6515 116.039 98.3201 115.786 98.0852C115.532 97.8504 115.166 97.733 114.689 97.733C114.185 97.733 113.786 97.8428 113.49 98.0625C113.198 98.2822 113.001 98.5417 112.899 98.8409L110.979 98.5682C111.13 98.0379 111.38 97.5947 111.729 97.2386C112.077 96.8788 112.503 96.6098 113.007 96.4318C113.511 96.25 114.068 96.1591 114.678 96.1591C115.098 96.1591 115.517 96.2083 115.933 96.3068C116.35 96.4053 116.731 96.5682 117.075 96.7955C117.42 97.0189 117.696 97.3239 117.905 97.7102C118.117 98.0966 118.223 98.5795 118.223 99.1591V105H116.246V103.801H116.178C116.053 104.044 115.876 104.271 115.649 104.483C115.426 104.691 115.143 104.86 114.803 104.989C114.465 105.114 114.07 105.176 113.615 105.176ZM114.149 103.665C114.562 103.665 114.92 103.583 115.223 103.42C115.526 103.254 115.759 103.034 115.922 102.761C116.089 102.489 116.172 102.191 116.172 101.869V100.841C116.107 100.894 115.998 100.943 115.842 100.989C115.691 101.034 115.52 101.074 115.331 101.108C115.142 101.142 114.954 101.172 114.768 101.199C114.583 101.225 114.422 101.248 114.286 101.267C113.979 101.309 113.704 101.377 113.462 101.472C113.219 101.566 113.028 101.699 112.888 101.869C112.748 102.036 112.678 102.252 112.678 102.517C112.678 102.896 112.816 103.182 113.092 103.375C113.369 103.568 113.721 103.665 114.149 103.665ZM120.382 105V93.3636H122.439V97.7159H122.524C122.63 97.5038 122.78 97.2784 122.973 97.0398C123.166 96.7973 123.428 96.5909 123.757 96.4205C124.087 96.2462 124.507 96.1591 125.018 96.1591C125.693 96.1591 126.301 96.3314 126.842 96.6761C127.388 97.017 127.82 97.5227 128.138 98.1932C128.46 98.8598 128.621 99.678 128.621 100.648C128.621 101.606 128.464 102.42 128.149 103.091C127.835 103.761 127.407 104.273 126.865 104.625C126.323 104.977 125.71 105.153 125.024 105.153C124.524 105.153 124.109 105.07 123.78 104.903C123.45 104.737 123.185 104.536 122.984 104.301C122.787 104.062 122.634 103.837 122.524 103.625H122.405V105H120.382ZM122.399 100.636C122.399 101.201 122.479 101.695 122.638 102.119C122.801 102.544 123.034 102.875 123.337 103.114C123.643 103.348 124.015 103.466 124.45 103.466C124.905 103.466 125.286 103.345 125.592 103.102C125.899 102.856 126.13 102.521 126.286 102.097C126.445 101.669 126.524 101.182 126.524 100.636C126.524 100.095 126.446 99.6136 126.291 99.1932C126.136 98.7727 125.905 98.4432 125.598 98.2045C125.291 97.9659 124.909 97.8466 124.45 97.8466C124.011 97.8466 123.638 97.9621 123.331 98.1932C123.024 98.4242 122.791 98.7481 122.632 99.1648C122.477 99.5814 122.399 100.072 122.399 100.636ZM137.267 98.5795L135.392 98.7841C135.339 98.5947 135.246 98.4167 135.114 98.25C134.985 98.0833 134.811 97.9489 134.591 97.8466C134.371 97.7443 134.102 97.6932 133.784 97.6932C133.356 97.6932 132.996 97.786 132.705 97.9716C132.417 98.1572 132.275 98.3977 132.278 98.6932C132.275 98.947 132.367 99.1534 132.557 99.3125C132.75 99.4716 133.068 99.6023 133.511 99.7045L135 100.023C135.826 100.201 136.439 100.483 136.841 100.869C137.246 101.256 137.451 101.761 137.455 102.386C137.451 102.936 137.29 103.42 136.972 103.841C136.657 104.258 136.22 104.583 135.659 104.818C135.098 105.053 134.455 105.17 133.727 105.17C132.659 105.17 131.799 104.947 131.148 104.5C130.496 104.049 130.108 103.422 129.983 102.619L131.989 102.426C132.08 102.82 132.273 103.117 132.568 103.318C132.864 103.519 133.248 103.619 133.722 103.619C134.21 103.619 134.602 103.519 134.898 103.318C135.197 103.117 135.347 102.869 135.347 102.574C135.347 102.324 135.25 102.117 135.057 101.955C134.867 101.792 134.572 101.667 134.17 101.58L132.682 101.267C131.845 101.093 131.225 100.799 130.824 100.386C130.422 99.9697 130.223 99.4432 130.227 98.8068C130.223 98.2689 130.369 97.803 130.665 97.4091C130.964 97.0114 131.379 96.7045 131.909 96.4886C132.443 96.2689 133.059 96.1591 133.756 96.1591C134.778 96.1591 135.583 96.3769 136.17 96.8125C136.761 97.2481 137.127 97.8371 137.267 98.5795ZM140.418 105.125C140.073 105.125 139.777 105.004 139.531 104.761C139.285 104.519 139.164 104.223 139.168 103.875C139.164 103.534 139.285 103.242 139.531 103C139.777 102.758 140.073 102.636 140.418 102.636C140.751 102.636 141.041 102.758 141.287 103C141.537 103.242 141.664 103.534 141.668 103.875C141.664 104.106 141.603 104.316 141.486 104.506C141.372 104.695 141.221 104.847 141.031 104.96C140.846 105.07 140.641 105.125 140.418 105.125ZM140.418 98.8977C140.073 98.8977 139.777 98.7765 139.531 98.5341C139.285 98.2879 139.164 97.9924 139.168 97.6477C139.164 97.3068 139.285 97.0152 139.531 96.7727C139.777 96.5265 140.073 96.4034 140.418 96.4034C140.751 96.4034 141.041 96.5265 141.287 96.7727C141.537 97.0152 141.664 97.3068 141.668 97.6477C141.664 97.875 141.603 98.0833 141.486 98.2727C141.372 98.4621 141.221 98.6136 141.031 98.7273C140.846 98.8409 140.641 98.8977 140.418 98.8977Z" fill="#38BDAE"/>
</g>
<path d="M233.335 105.222C232.4 105.222 231.597 104.985 230.926 104.511C230.259 104.034 229.746 103.347 229.386 102.449C229.03 101.547 228.852 100.462 228.852 99.1932C228.856 97.9242 229.036 96.8447 229.392 95.9545C229.752 95.0606 230.265 94.3788 230.932 93.9091C231.602 93.4394 232.403 93.2045 233.335 93.2045C234.267 93.2045 235.068 93.4394 235.739 93.9091C236.409 94.3788 236.922 95.0606 237.278 95.9545C237.638 96.8485 237.818 97.928 237.818 99.1932C237.818 100.466 237.638 101.553 237.278 102.455C236.922 103.352 236.409 104.038 235.739 104.511C235.072 104.985 234.271 105.222 233.335 105.222ZM233.335 103.443C234.063 103.443 234.636 103.085 235.057 102.369C235.481 101.65 235.693 100.591 235.693 99.1932C235.693 98.2689 235.597 97.4924 235.403 96.8636C235.21 96.2348 234.938 95.7614 234.585 95.4432C234.233 95.1212 233.816 94.9602 233.335 94.9602C232.612 94.9602 232.04 95.3201 231.619 96.0398C231.199 96.7557 230.987 97.8068 230.983 99.1932C230.979 100.121 231.072 100.902 231.261 101.534C231.455 102.167 231.727 102.644 232.08 102.966C232.432 103.284 232.85 103.443 233.335 103.443Z" fill="#38BDAE"/>
</g>
<g clip-path="url(#clip3_877_296)">
<g clip-path="url(#clip4_877_296)">
<g clip-path="url(#clip5_877_296)">
<path d="M37.3333 135L42.3333 130L37.3333 125" stroke="#A17BCD" stroke-width="1.5" stroke-linecap="round" stroke-linejoin="round"/>
<path d="M30.6667 125L25.6667 130L30.6667 135" stroke="#A17BCD" stroke-width="1.5" stroke-linecap="round" stroke-linejoin="round"/>
<path d="M37.3333 135L42.3333 130L37.3333 125" stroke="#A17BCD" stroke-width="2" stroke-linecap="round" stroke-linejoin="round"/>
<path d="M30.6667 125L25.6667 130L30.6667 135" stroke="#A17BCD" stroke-width="2" stroke-linecap="round" stroke-linejoin="round"/>
</g>
<path d="M65.108 127.29H62.983C62.9223 126.941 62.8106 126.633 62.6477 126.364C62.4848 126.091 62.2822 125.86 62.0398 125.67C61.7973 125.481 61.5208 125.339 61.2102 125.244C60.9034 125.146 60.572 125.097 60.2159 125.097C59.5833 125.097 59.0227 125.256 58.5341 125.574C58.0455 125.888 57.6629 126.35 57.3864 126.96C57.1098 127.566 56.9716 128.307 56.9716 129.182C56.9716 130.072 57.1098 130.822 57.3864 131.432C57.6667 132.038 58.0492 132.496 58.5341 132.807C59.0227 133.114 59.5814 133.267 60.2102 133.267C60.5587 133.267 60.8845 133.222 61.1875 133.131C61.4943 133.036 61.7689 132.898 62.0114 132.716C62.2576 132.534 62.464 132.311 62.6307 132.045C62.8011 131.78 62.9186 131.477 62.983 131.136L65.108 131.148C65.0284 131.701 64.8561 132.22 64.5909 132.705C64.3295 133.189 63.9867 133.617 63.5625 133.989C63.1383 134.356 62.642 134.644 62.0739 134.852C61.5057 135.057 60.875 135.159 60.1818 135.159C59.1591 135.159 58.2462 134.922 57.4432 134.449C56.6402 133.975 56.0076 133.292 55.5455 132.398C55.0833 131.504 54.8523 130.432 54.8523 129.182C54.8523 127.928 55.0852 126.856 55.5511 125.966C56.017 125.072 56.6515 124.388 57.4545 123.915C58.2576 123.441 59.1667 123.205 60.1818 123.205C60.8295 123.205 61.4318 123.295 61.9886 123.477C62.5455 123.659 63.0417 123.926 63.4773 124.278C63.9129 124.627 64.2708 125.055 64.5511 125.562C64.8352 126.066 65.0208 126.642 65.108 127.29ZM72.5099 131.33V126.273H74.5668V135H72.5724V133.449H72.4815C72.2846 133.937 71.9607 134.337 71.5099 134.648C71.063 134.958 70.5118 135.114 69.8565 135.114C69.2846 135.114 68.7789 134.987 68.3395 134.733C67.9039 134.475 67.563 134.102 67.3168 133.614C67.0705 133.121 66.9474 132.527 66.9474 131.83V126.273H69.0043V131.511C69.0043 132.064 69.1558 132.504 69.4588 132.83C69.7618 133.155 70.1596 133.318 70.652 133.318C70.955 133.318 71.2486 133.244 71.5327 133.097C71.8168 132.949 72.0497 132.729 72.2315 132.438C72.4171 132.142 72.5099 131.773 72.5099 131.33ZM83.5795 128.58L81.7045 128.784C81.6515 128.595 81.5587 128.417 81.4261 128.25C81.2973 128.083 81.1231 127.949 80.9034 127.847C80.6837 127.744 80.4148 127.693 80.0966 127.693C79.6686 127.693 79.3087 127.786 79.017 127.972C78.7292 128.157 78.5871 128.398 78.5909 128.693C78.5871 128.947 78.6799 129.153 78.8693 129.312C79.0625 129.472 79.3807 129.602 79.8239 129.705L81.3125 130.023C82.1383 130.201 82.7519 130.483 83.1534 130.869C83.5587 131.256 83.7633 131.761 83.767 132.386C83.7633 132.936 83.6023 133.42 83.2841 133.841C82.9697 134.258 82.5322 134.583 81.9716 134.818C81.411 135.053 80.767 135.17 80.0398 135.17C78.9716 135.17 78.1117 134.947 77.4602 134.5C76.8087 134.049 76.4205 133.422 76.2955 132.619L78.3011 132.426C78.392 132.82 78.5852 133.117 78.8807 133.318C79.1761 133.519 79.5606 133.619 80.0341 133.619C80.5227 133.619 80.9148 133.519 81.2102 133.318C81.5095 133.117 81.6591 132.869 81.6591 132.574C81.6591 132.324 81.5625 132.117 81.3693 131.955C81.1799 131.792 80.8845 131.667 80.483 131.58L78.9943 131.267C78.1572 131.093 77.5379 130.799 77.1364 130.386C76.7348 129.97 76.536 129.443 76.5398 128.807C76.536 128.269 76.6818 127.803 76.9773 127.409C77.2765 127.011 77.6913 126.705 78.2216 126.489C78.7557 126.269 79.3712 126.159 80.0682 126.159C81.0909 126.159 81.8958 126.377 82.483 126.812C83.0739 127.248 83.4394 127.837 83.5795 128.58ZM89.821 126.273V127.864H84.804V126.273H89.821ZM86.0426 124.182H88.0994V132.375C88.0994 132.652 88.1411 132.864 88.2244 133.011C88.3116 133.155 88.4252 133.254 88.5653 133.307C88.7055 133.36 88.8608 133.386 89.0312 133.386C89.16 133.386 89.2775 133.377 89.3835 133.358C89.4934 133.339 89.5767 133.322 89.6335 133.307L89.9801 134.915C89.8703 134.953 89.7131 134.994 89.5085 135.04C89.3078 135.085 89.0616 135.112 88.7699 135.119C88.2547 135.134 87.7907 135.057 87.3778 134.886C86.965 134.712 86.6373 134.443 86.3949 134.08C86.1563 133.716 86.0388 133.261 86.0426 132.716V124.182ZM95.2543 135.17C94.402 135.17 93.6634 134.983 93.0384 134.608C92.4134 134.233 91.9285 133.708 91.5838 133.034C91.2429 132.36 91.0724 131.572 91.0724 130.67C91.0724 129.769 91.2429 128.979 91.5838 128.301C91.9285 127.623 92.4134 127.097 93.0384 126.722C93.6634 126.347 94.402 126.159 95.2543 126.159C96.1065 126.159 96.8452 126.347 97.4702 126.722C98.0952 127.097 98.5781 127.623 98.919 128.301C99.2637 128.979 99.4361 129.769 99.4361 130.67C99.4361 131.572 99.2637 132.36 98.919 133.034C98.5781 133.708 98.0952 134.233 97.4702 134.608C96.8452 134.983 96.1065 135.17 95.2543 135.17ZM95.2656 133.523C95.7277 133.523 96.1141 133.396 96.4247 133.142C96.7353 132.884 96.9664 132.54 97.1179 132.108C97.2732 131.676 97.3509 131.195 97.3509 130.665C97.3509 130.131 97.2732 129.648 97.1179 129.216C96.9664 128.78 96.7353 128.434 96.4247 128.176C96.1141 127.919 95.7277 127.79 95.2656 127.79C94.7921 127.79 94.3982 127.919 94.0838 128.176C93.7732 128.434 93.5402 128.78 93.3849 129.216C93.2334 129.648 93.1577 130.131 93.1577 130.665C93.1577 131.195 93.2334 131.676 93.3849 132.108C93.5402 132.54 93.7732 132.884 94.0838 133.142C94.3982 133.396 94.7921 133.523 95.2656 133.523ZM101.182 135V126.273H103.148V127.756H103.25C103.432 127.256 103.733 126.866 104.153 126.585C104.574 126.301 105.076 126.159 105.659 126.159C106.25 126.159 106.748 126.303 107.153 126.591C107.563 126.875 107.85 127.263 108.017 127.756H108.108C108.301 127.271 108.627 126.884 109.085 126.597C109.547 126.305 110.095 126.159 110.727 126.159C111.53 126.159 112.186 126.413 112.693 126.92C113.201 127.428 113.455 128.169 113.455 129.142V135H111.392V129.46C111.392 128.919 111.248 128.523 110.96 128.273C110.672 128.019 110.32 127.892 109.903 127.892C109.407 127.892 109.019 128.047 108.739 128.358C108.462 128.665 108.324 129.064 108.324 129.557V135H106.307V129.375C106.307 128.924 106.17 128.564 105.898 128.295C105.629 128.027 105.277 127.892 104.841 127.892C104.545 127.892 104.277 127.968 104.034 128.119C103.792 128.267 103.598 128.477 103.455 128.75C103.311 129.019 103.239 129.333 103.239 129.693V135H101.182ZM119.089 125.131V123.364H128.374V125.131H124.777V135H122.686V125.131H119.089ZM132.614 135.17C131.761 135.17 131.023 134.983 130.398 134.608C129.773 134.233 129.288 133.708 128.943 133.034C128.602 132.36 128.432 131.572 128.432 130.67C128.432 129.769 128.602 128.979 128.943 128.301C129.288 127.623 129.773 127.097 130.398 126.722C131.023 126.347 131.761 126.159 132.614 126.159C133.466 126.159 134.205 126.347 134.83 126.722C135.455 127.097 135.938 127.623 136.278 128.301C136.623 128.979 136.795 129.769 136.795 130.67C136.795 131.572 136.623 132.36 136.278 133.034C135.938 133.708 135.455 134.233 134.83 134.608C134.205 134.983 133.466 135.17 132.614 135.17ZM132.625 133.523C133.087 133.523 133.473 133.396 133.784 133.142C134.095 132.884 134.326 132.54 134.477 132.108C134.633 131.676 134.71 131.195 134.71 130.665C134.71 130.131 134.633 129.648 134.477 129.216C134.326 128.78 134.095 128.434 133.784 128.176C133.473 127.919 133.087 127.79 132.625 127.79C132.152 127.79 131.758 127.919 131.443 128.176C131.133 128.434 130.9 128.78 130.744 129.216C130.593 129.648 130.517 130.131 130.517 130.665C130.517 131.195 130.593 131.676 130.744 132.108C130.9 132.54 131.133 132.884 131.443 133.142C131.758 133.396 132.152 133.523 132.625 133.523ZM142.348 135.17C141.496 135.17 140.757 134.983 140.132 134.608C139.507 134.233 139.022 133.708 138.678 133.034C138.337 132.36 138.166 131.572 138.166 130.67C138.166 129.769 138.337 128.979 138.678 128.301C139.022 127.623 139.507 127.097 140.132 126.722C140.757 126.347 141.496 126.159 142.348 126.159C143.2 126.159 143.939 126.347 144.564 126.722C145.189 127.097 145.672 127.623 146.013 128.301C146.357 128.979 146.53 129.769 146.53 130.67C146.53 131.572 146.357 132.36 146.013 133.034C145.672 133.708 145.189 134.233 144.564 134.608C143.939 134.983 143.2 135.17 142.348 135.17ZM142.359 133.523C142.821 133.523 143.208 133.396 143.518 133.142C143.829 132.884 144.06 132.54 144.212 132.108C144.367 131.676 144.445 131.195 144.445 130.665C144.445 130.131 144.367 129.648 144.212 129.216C144.06 128.78 143.829 128.434 143.518 128.176C143.208 127.919 142.821 127.79 142.359 127.79C141.886 127.79 141.492 127.919 141.178 128.176C140.867 128.434 140.634 128.78 140.479 129.216C140.327 129.648 140.251 130.131 140.251 130.665C140.251 131.195 140.327 131.676 140.479 132.108C140.634 132.54 140.867 132.884 141.178 133.142C141.492 133.396 141.886 133.523 142.359 133.523ZM150.332 123.364V135H148.276V123.364H150.332ZM159.345 128.58L157.47 128.784C157.417 128.595 157.324 128.417 157.192 128.25C157.063 128.083 156.889 127.949 156.669 127.847C156.449 127.744 156.18 127.693 155.862 127.693C155.434 127.693 155.074 127.786 154.783 127.972C154.495 128.157 154.353 128.398 154.357 128.693C154.353 128.947 154.446 129.153 154.635 129.312C154.828 129.472 155.146 129.602 155.589 129.705L157.078 130.023C157.904 130.201 158.518 130.483 158.919 130.869C159.324 131.256 159.529 131.761 159.533 132.386C159.529 132.936 159.368 133.42 159.05 133.841C158.735 134.258 158.298 134.583 157.737 134.818C157.177 135.053 156.533 135.17 155.805 135.17C154.737 135.17 153.877 134.947 153.226 134.5C152.574 134.049 152.186 133.422 152.061 132.619L154.067 132.426C154.158 132.82 154.351 133.117 154.646 133.318C154.942 133.519 155.326 133.619 155.8 133.619C156.288 133.619 156.68 133.519 156.976 133.318C157.275 133.117 157.425 132.869 157.425 132.574C157.425 132.324 157.328 132.117 157.135 131.955C156.946 131.792 156.65 131.667 156.249 131.58L154.76 131.267C153.923 131.093 153.304 130.799 152.902 130.386C152.5 129.97 152.302 129.443 152.305 128.807C152.302 128.269 152.447 127.803 152.743 127.409C153.042 127.011 153.457 126.705 153.987 126.489C154.521 126.269 155.137 126.159 155.834 126.159C156.857 126.159 157.661 126.377 158.249 126.812C158.839 127.248 159.205 127.837 159.345 128.58ZM162.496 135.125C162.151 135.125 161.856 135.004 161.609 134.761C161.363 134.519 161.242 134.223 161.246 133.875C161.242 133.534 161.363 133.242 161.609 133C161.856 132.758 162.151 132.636 162.496 132.636C162.829 132.636 163.119 132.758 163.365 133C163.615 133.242 163.742 133.534 163.746 133.875C163.742 134.106 163.681 134.316 163.564 134.506C163.45 134.695 163.299 134.847 163.109 134.96C162.924 135.07 162.719 135.125 162.496 135.125ZM162.496 128.898C162.151 128.898 161.856 128.777 161.609 128.534C161.363 128.288 161.242 127.992 161.246 127.648C161.242 127.307 161.363 127.015 161.609 126.773C161.856 126.527 162.151 126.403 162.496 126.403C162.829 126.403 163.119 126.527 163.365 126.773C163.615 127.015 163.742 127.307 163.746 127.648C163.742 127.875 163.681 128.083 163.564 128.273C163.45 128.462 163.299 128.614 163.109 128.727C162.924 128.841 162.719 128.898 162.496 128.898Z" fill="#38BDAE"/>
</g>
<path d="M236.767 123.364V135H234.659V125.415H234.591L231.869 127.153V125.222L234.761 123.364H236.767Z" fill="#38BDAE"/>
</g>
<g clip-path="url(#clip6_877_296)">
<g clip-path="url(#clip7_877_296)">
<path d="M35.6666 168.333H38.9999C39.4419 168.333 39.8659 168.157 40.1784 167.845C40.491 167.532 40.6666 167.108 40.6666 166.666V156.666C40.6672 156.402 40.6156 156.14 40.5146 155.896C40.4136 155.652 40.2653 155.431 40.0783 155.244L37.0883 152.254C36.9019 152.067 36.6803 151.919 36.4363 151.818C36.1923 151.717 35.9307 151.665 35.6666 151.666H28.9999C28.5579 151.666 28.134 151.842 27.8214 152.154C27.5088 152.467 27.3333 152.891 27.3333 153.333V158.333" stroke="#A17BCD" stroke-width="2" stroke-linecap="round" stroke-linejoin="round"/>
<path d="M35.6667 151.666V155.833C35.6667 156.054 35.7545 156.266 35.9108 156.422C36.0671 156.578 36.2791 156.666 36.5001 156.666H40.6667" stroke="#A17BCD" stroke-width="2" stroke-linecap="round" stroke-linejoin="round"/>
<path d="M28.1667 161.666C27.9457 161.666 27.7337 161.754 27.5774 161.91C27.4211 162.066 27.3333 162.278 27.3333 162.499V164.166C27.3333 164.387 27.2455 164.599 27.0893 164.755C26.933 164.912 26.721 164.999 26.5 164.999C26.721 164.999 26.933 165.087 27.0893 165.243C27.2455 165.4 27.3333 165.612 27.3333 165.833V167.499C27.3333 167.72 27.4211 167.932 27.5774 168.089C27.7337 168.245 27.9457 168.333 28.1667 168.333" stroke="#A17BCD" stroke-width="2" stroke-linecap="round" stroke-linejoin="round"/>
<path d="M31.5 168.333C31.721 168.333 31.933 168.245 32.0893 168.089C32.2455 167.932 32.3333 167.72 32.3333 167.499V165.833C32.3333 165.612 32.4211 165.4 32.5774 165.243C32.7337 165.087 32.9457 164.999 33.1667 164.999C32.9457 164.999 32.7337 164.912 32.5774 164.755C32.4211 164.599 32.3333 164.387 32.3333 164.166V162.499C32.3333 162.278 32.2455 162.066 32.0893 161.91C31.933 161.754 31.721 161.666 31.5 161.666" stroke="#A17BCD" stroke-width="2" stroke-linecap="round" stroke-linejoin="round"/>
<path d="M56.642 165H54.392L58.4886 153.364H61.0909L65.1932 165H62.9432L59.8352 155.75H59.7443L56.642 165ZM56.7159 160.438H62.8523V162.131H56.7159V160.438ZM72.1974 161.33V156.273H74.2543V165H72.2599V163.449H72.169C71.9721 163.937 71.6482 164.337 71.1974 164.648C70.7505 164.958 70.1993 165.114 69.544 165.114C68.9721 165.114 68.4664 164.987 68.027 164.733C67.5914 164.475 67.2505 164.102 67.0043 163.614C66.758 163.121 66.6349 162.527 66.6349 161.83V156.273H68.6918V161.511C68.6918 162.064 68.8433 162.504 69.1463 162.83C69.4493 163.155 69.8471 163.318 70.3395 163.318C70.6425 163.318 70.9361 163.244 71.2202 163.097C71.5043 162.949 71.7372 162.729 71.919 162.438C72.1046 162.142 72.1974 161.773 72.1974 161.33ZM80.7273 156.273V157.864H75.7102V156.273H80.7273ZM76.9489 154.182H79.0057V162.375C79.0057 162.652 79.0473 162.864 79.1307 163.011C79.2178 163.155 79.3314 163.254 79.4716 163.307C79.6117 163.36 79.767 163.386 79.9375 163.386C80.0663 163.386 80.1837 163.377 80.2898 163.358C80.3996 163.339 80.483 163.322 80.5398 163.307L80.8864 164.915C80.7765 164.953 80.6193 164.994 80.4148 165.04C80.214 165.085 79.9678 165.112 79.6761 165.119C79.161 165.134 78.697 165.057 78.2841 164.886C77.8712 164.712 77.5436 164.443 77.3011 164.08C77.0625 163.716 76.9451 163.261 76.9489 162.716V154.182ZM86.1605 165.17C85.3082 165.17 84.5696 164.983 83.9446 164.608C83.3196 164.233 82.8348 163.708 82.4901 163.034C82.1491 162.36 81.9787 161.572 81.9787 160.67C81.9787 159.769 82.1491 158.979 82.4901 158.301C82.8348 157.623 83.3196 157.097 83.9446 156.722C84.5696 156.347 85.3082 156.159 86.1605 156.159C87.0128 156.159 87.7514 156.347 88.3764 156.722C89.0014 157.097 89.4844 157.623 89.8253 158.301C90.17 158.979 90.3423 159.769 90.3423 160.67C90.3423 161.572 90.17 162.36 89.8253 163.034C89.4844 163.708 89.0014 164.233 88.3764 164.608C87.7514 164.983 87.0128 165.17 86.1605 165.17ZM86.1719 163.523C86.634 163.523 87.0204 163.396 87.331 163.142C87.6416 162.884 87.8726 162.54 88.0241 162.108C88.1795 161.676 88.2571 161.195 88.2571 160.665C88.2571 160.131 88.1795 159.648 88.0241 159.216C87.8726 158.78 87.6416 158.434 87.331 158.176C87.0204 157.919 86.634 157.79 86.1719 157.79C85.6984 157.79 85.3045 157.919 84.9901 158.176C84.6795 158.434 84.4465 158.78 84.2912 159.216C84.1397 159.648 84.0639 160.131 84.0639 160.665C84.0639 161.195 84.1397 161.676 84.2912 162.108C84.4465 162.54 84.6795 162.884 84.9901 163.142C85.3045 163.396 85.6984 163.523 86.1719 163.523ZM92.0881 165V156.273H94.054V157.756H94.1562C94.3381 157.256 94.6392 156.866 95.0597 156.585C95.4801 156.301 95.982 156.159 96.5653 156.159C97.1562 156.159 97.6544 156.303 98.0597 156.591C98.4688 156.875 98.7566 157.263 98.9233 157.756H99.0142C99.2074 157.271 99.5331 156.884 99.9915 156.597C100.454 156.305 101.001 156.159 101.634 156.159C102.437 156.159 103.092 156.413 103.599 156.92C104.107 157.428 104.361 158.169 104.361 159.142V165H102.298V159.46C102.298 158.919 102.154 158.523 101.866 158.273C101.579 158.019 101.226 157.892 100.81 157.892C100.313 157.892 99.9252 158.047 99.6449 158.358C99.3684 158.665 99.2301 159.064 99.2301 159.557V165H97.2131V159.375C97.2131 158.924 97.0767 158.564 96.804 158.295C96.535 158.027 96.1828 157.892 95.7472 157.892C95.4517 157.892 95.1828 157.968 94.9403 158.119C94.6979 158.267 94.5047 158.477 94.3608 158.75C94.2169 159.019 94.1449 159.333 94.1449 159.693V165H92.0881ZM108.959 165.176C108.406 165.176 107.908 165.078 107.464 164.881C107.025 164.68 106.677 164.384 106.419 163.994C106.165 163.604 106.038 163.123 106.038 162.551C106.038 162.059 106.129 161.652 106.311 161.33C106.493 161.008 106.741 160.75 107.055 160.557C107.37 160.364 107.724 160.218 108.118 160.119C108.516 160.017 108.927 159.943 109.351 159.898C109.862 159.845 110.277 159.797 110.595 159.756C110.913 159.71 111.144 159.642 111.288 159.551C111.436 159.456 111.51 159.311 111.51 159.114V159.08C111.51 158.652 111.383 158.32 111.129 158.085C110.875 157.85 110.51 157.733 110.033 157.733C109.529 157.733 109.129 157.843 108.834 158.062C108.542 158.282 108.345 158.542 108.243 158.841L106.322 158.568C106.474 158.038 106.724 157.595 107.072 157.239C107.421 156.879 107.847 156.61 108.351 156.432C108.855 156.25 109.411 156.159 110.021 156.159C110.442 156.159 110.86 156.208 111.277 156.307C111.694 156.405 112.074 156.568 112.419 156.795C112.764 157.019 113.04 157.324 113.249 157.71C113.461 158.097 113.567 158.58 113.567 159.159V165H111.589V163.801H111.521C111.396 164.044 111.22 164.271 110.993 164.483C110.769 164.691 110.487 164.86 110.146 164.989C109.809 165.114 109.413 165.176 108.959 165.176ZM109.493 163.665C109.906 163.665 110.264 163.583 110.567 163.42C110.87 163.254 111.103 163.034 111.266 162.761C111.432 162.489 111.516 162.191 111.516 161.869V160.841C111.451 160.894 111.341 160.943 111.186 160.989C111.035 161.034 110.864 161.074 110.675 161.108C110.485 161.142 110.298 161.172 110.112 161.199C109.927 161.225 109.766 161.248 109.629 161.267C109.322 161.309 109.048 161.377 108.805 161.472C108.563 161.566 108.372 161.699 108.232 161.869C108.091 162.036 108.021 162.252 108.021 162.517C108.021 162.896 108.16 163.182 108.436 163.375C108.713 163.568 109.065 163.665 109.493 163.665ZM119.993 156.273V157.864H114.976V156.273H119.993ZM116.214 154.182H118.271V162.375C118.271 162.652 118.313 162.864 118.396 163.011C118.483 163.155 118.597 163.254 118.737 163.307C118.877 163.36 119.033 163.386 119.203 163.386C119.332 163.386 119.449 163.377 119.555 163.358C119.665 163.339 119.749 163.322 119.805 163.307L120.152 164.915C120.042 164.953 119.885 164.994 119.68 165.04C119.48 165.085 119.233 165.112 118.942 165.119C118.427 165.134 117.963 165.057 117.55 164.886C117.137 164.712 116.809 164.443 116.567 164.08C116.328 163.716 116.211 163.261 116.214 162.716V154.182ZM121.713 165V156.273H123.77V165H121.713ZM122.747 155.034C122.421 155.034 122.141 154.926 121.906 154.71C121.671 154.491 121.554 154.227 121.554 153.92C121.554 153.61 121.671 153.347 121.906 153.131C122.141 152.911 122.421 152.801 122.747 152.801C123.077 152.801 123.357 152.911 123.588 153.131C123.823 153.347 123.94 153.61 123.94 153.92C123.94 154.227 123.823 154.491 123.588 154.71C123.357 154.926 123.077 155.034 122.747 155.034ZM129.692 165.17C128.839 165.17 128.101 164.983 127.476 164.608C126.851 164.233 126.366 163.708 126.021 163.034C125.68 162.36 125.51 161.572 125.51 160.67C125.51 159.769 125.68 158.979 126.021 158.301C126.366 157.623 126.851 157.097 127.476 156.722C128.101 156.347 128.839 156.159 129.692 156.159C130.544 156.159 131.283 156.347 131.908 156.722C132.533 157.097 133.016 157.623 133.357 158.301C133.701 158.979 133.874 159.769 133.874 160.67C133.874 161.572 133.701 162.36 133.357 163.034C133.016 163.708 132.533 164.233 131.908 164.608C131.283 164.983 130.544 165.17 129.692 165.17ZM129.703 163.523C130.165 163.523 130.552 163.396 130.862 163.142C131.173 162.884 131.404 162.54 131.555 162.108C131.711 161.676 131.788 161.195 131.788 160.665C131.788 160.131 131.711 159.648 131.555 159.216C131.404 158.78 131.173 158.434 130.862 158.176C130.552 157.919 130.165 157.79 129.703 157.79C129.23 157.79 128.836 157.919 128.521 158.176C128.211 158.434 127.978 158.78 127.822 159.216C127.671 159.648 127.595 160.131 127.595 160.665C127.595 161.195 127.671 161.676 127.822 162.108C127.978 162.54 128.211 162.884 128.521 163.142C128.836 163.396 129.23 163.523 129.703 163.523ZM137.676 159.886V165H135.619V156.273H137.585V157.756H137.688C137.888 157.267 138.208 156.879 138.648 156.591C139.091 156.303 139.638 156.159 140.29 156.159C140.892 156.159 141.417 156.288 141.864 156.545C142.314 156.803 142.663 157.176 142.909 157.665C143.159 158.153 143.282 158.746 143.278 159.443V165H141.222V159.761C141.222 159.178 141.07 158.722 140.767 158.392C140.468 158.062 140.053 157.898 139.523 157.898C139.163 157.898 138.843 157.977 138.562 158.136C138.286 158.292 138.068 158.517 137.909 158.812C137.754 159.108 137.676 159.466 137.676 159.886ZM155.753 156.562C155.7 156.066 155.476 155.68 155.082 155.403C154.692 155.127 154.185 154.989 153.56 154.989C153.12 154.989 152.743 155.055 152.429 155.188C152.115 155.32 151.874 155.5 151.707 155.727C151.541 155.955 151.455 156.214 151.452 156.506C151.452 156.748 151.507 156.958 151.616 157.136C151.73 157.314 151.884 157.466 152.077 157.591C152.27 157.712 152.484 157.814 152.719 157.898C152.954 157.981 153.19 158.051 153.429 158.108L154.52 158.381C154.959 158.483 155.382 158.621 155.787 158.795C156.196 158.97 156.562 159.189 156.884 159.455C157.209 159.72 157.467 160.04 157.656 160.415C157.846 160.79 157.94 161.229 157.94 161.733C157.94 162.415 157.766 163.015 157.418 163.534C157.069 164.049 156.565 164.453 155.906 164.744C155.251 165.032 154.457 165.176 153.526 165.176C152.62 165.176 151.834 165.036 151.168 164.756C150.505 164.475 149.986 164.066 149.611 163.528C149.24 162.991 149.039 162.335 149.009 161.562H151.082C151.113 161.968 151.238 162.305 151.457 162.574C151.677 162.843 151.963 163.044 152.315 163.176C152.671 163.309 153.069 163.375 153.509 163.375C153.967 163.375 154.368 163.307 154.713 163.17C155.062 163.03 155.334 162.837 155.531 162.591C155.728 162.341 155.829 162.049 155.832 161.716C155.829 161.413 155.74 161.163 155.565 160.966C155.391 160.765 155.147 160.598 154.832 160.466C154.522 160.33 154.158 160.208 153.741 160.102L152.418 159.761C151.459 159.515 150.702 159.142 150.145 158.642C149.592 158.138 149.315 157.47 149.315 156.636C149.315 155.951 149.501 155.35 149.872 154.835C150.247 154.32 150.757 153.92 151.401 153.636C152.045 153.348 152.774 153.205 153.588 153.205C154.414 153.205 155.137 153.348 155.759 153.636C156.384 153.92 156.874 154.316 157.23 154.824C157.586 155.328 157.77 155.907 157.781 156.562H155.753ZM163.536 165.17C162.664 165.17 161.916 164.979 161.291 164.597C160.67 164.214 160.191 163.686 159.854 163.011C159.52 162.333 159.354 161.553 159.354 160.67C159.354 159.784 159.524 159.002 159.865 158.324C160.206 157.642 160.687 157.112 161.308 156.733C161.933 156.35 162.672 156.159 163.524 156.159C164.232 156.159 164.859 156.29 165.405 156.551C165.954 156.809 166.392 157.174 166.717 157.648C167.043 158.117 167.229 158.667 167.274 159.295H165.308C165.229 158.875 165.039 158.525 164.74 158.244C164.445 157.96 164.049 157.818 163.553 157.818C163.132 157.818 162.763 157.932 162.445 158.159C162.126 158.383 161.878 158.705 161.7 159.125C161.526 159.545 161.439 160.049 161.439 160.636C161.439 161.231 161.526 161.742 161.7 162.17C161.875 162.595 162.119 162.922 162.433 163.153C162.751 163.381 163.125 163.494 163.553 163.494C163.856 163.494 164.126 163.437 164.365 163.324C164.607 163.206 164.81 163.038 164.973 162.818C165.136 162.598 165.248 162.331 165.308 162.017H167.274C167.225 162.634 167.043 163.182 166.729 163.659C166.414 164.133 165.986 164.504 165.445 164.773C164.903 165.038 164.267 165.17 163.536 165.17ZM168.963 165V156.273H170.957V157.727H171.048C171.207 157.223 171.48 156.835 171.866 156.562C172.257 156.286 172.702 156.148 173.202 156.148C173.315 156.148 173.442 156.153 173.582 156.165C173.726 156.172 173.846 156.186 173.94 156.205V158.097C173.853 158.066 173.715 158.04 173.526 158.017C173.34 157.991 173.16 157.977 172.986 157.977C172.611 157.977 172.274 158.059 171.974 158.222C171.679 158.381 171.446 158.602 171.276 158.886C171.105 159.17 171.02 159.498 171.02 159.869V165H168.963ZM175.307 165V156.273H177.364V165H175.307ZM176.341 155.034C176.015 155.034 175.735 154.926 175.5 154.71C175.265 154.491 175.148 154.227 175.148 153.92C175.148 153.61 175.265 153.347 175.5 153.131C175.735 152.911 176.015 152.801 176.341 152.801C176.67 152.801 176.951 152.911 177.182 153.131C177.417 153.347 177.534 153.61 177.534 153.92C177.534 154.227 177.417 154.491 177.182 154.71C176.951 154.926 176.67 155.034 176.341 155.034ZM179.479 168.273V156.273H181.501V157.716H181.621C181.727 157.504 181.876 157.278 182.07 157.04C182.263 156.797 182.524 156.591 182.854 156.42C183.183 156.246 183.604 156.159 184.115 156.159C184.789 156.159 185.397 156.331 185.939 156.676C186.484 157.017 186.916 157.523 187.234 158.193C187.556 158.86 187.717 159.678 187.717 160.648C187.717 161.606 187.56 162.42 187.246 163.091C186.931 163.761 186.503 164.273 185.962 164.625C185.42 164.977 184.806 165.153 184.121 165.153C183.621 165.153 183.206 165.07 182.876 164.903C182.547 164.737 182.282 164.536 182.081 164.301C181.884 164.062 181.731 163.837 181.621 163.625H181.536V168.273H179.479ZM181.496 160.636C181.496 161.201 181.575 161.695 181.734 162.119C181.897 162.544 182.13 162.875 182.433 163.114C182.74 163.348 183.111 163.466 183.547 163.466C184.001 163.466 184.382 163.345 184.689 163.102C184.996 162.856 185.227 162.521 185.382 162.097C185.541 161.669 185.621 161.182 185.621 160.636C185.621 160.095 185.543 159.614 185.388 159.193C185.232 158.773 185.001 158.443 184.695 158.205C184.388 157.966 184.005 157.847 183.547 157.847C183.107 157.847 182.734 157.962 182.428 158.193C182.121 158.424 181.888 158.748 181.729 159.165C181.573 159.581 181.496 160.072 181.496 160.636ZM193.837 156.273V157.864H188.82V156.273H193.837ZM190.058 154.182H192.115V162.375C192.115 162.652 192.157 162.864 192.24 163.011C192.327 163.155 192.441 163.254 192.581 163.307C192.721 163.36 192.876 163.386 193.047 163.386C193.176 163.386 193.293 163.377 193.399 163.358C193.509 163.339 193.592 163.322 193.649 163.307L193.996 164.915C193.886 164.953 193.729 164.994 193.524 165.04C193.323 165.085 193.077 165.112 192.786 165.119C192.27 165.134 191.806 165.057 191.393 164.886C190.981 164.712 190.653 164.443 190.411 164.08C190.172 163.716 190.054 163.261 190.058 162.716V154.182ZM202.33 158.58L200.455 158.784C200.402 158.595 200.309 158.417 200.176 158.25C200.047 158.083 199.873 157.949 199.653 157.847C199.434 157.744 199.165 157.693 198.847 157.693C198.419 157.693 198.059 157.786 197.767 157.972C197.479 158.157 197.337 158.398 197.341 158.693C197.337 158.947 197.43 159.153 197.619 159.312C197.813 159.472 198.131 159.602 198.574 159.705L200.062 160.023C200.888 160.201 201.502 160.483 201.903 160.869C202.309 161.256 202.513 161.761 202.517 162.386C202.513 162.936 202.352 163.42 202.034 163.841C201.72 164.258 201.282 164.583 200.722 164.818C200.161 165.053 199.517 165.17 198.79 165.17C197.722 165.17 196.862 164.947 196.21 164.5C195.559 164.049 195.17 163.422 195.045 162.619L197.051 162.426C197.142 162.82 197.335 163.117 197.631 163.318C197.926 163.519 198.311 163.619 198.784 163.619C199.273 163.619 199.665 163.519 199.96 163.318C200.259 163.117 200.409 162.869 200.409 162.574C200.409 162.324 200.313 162.117 200.119 161.955C199.93 161.792 199.634 161.667 199.233 161.58L197.744 161.267C196.907 161.093 196.288 160.799 195.886 160.386C195.485 159.97 195.286 159.443 195.29 158.807C195.286 158.269 195.432 157.803 195.727 157.409C196.027 157.011 196.441 156.705 196.972 156.489C197.506 156.269 198.121 156.159 198.818 156.159C199.841 156.159 200.646 156.377 201.233 156.812C201.824 157.248 202.189 157.837 202.33 158.58ZM205.48 165.125C205.135 165.125 204.84 165.004 204.594 164.761C204.348 164.519 204.226 164.223 204.23 163.875C204.226 163.534 204.348 163.242 204.594 163C204.84 162.758 205.135 162.636 205.48 162.636C205.813 162.636 206.103 162.758 206.349 163C206.599 163.242 206.726 163.534 206.73 163.875C206.726 164.106 206.666 164.316 206.548 164.506C206.435 164.695 206.283 164.847 206.094 164.96C205.908 165.07 205.704 165.125 205.48 165.125ZM205.48 158.898C205.135 158.898 204.84 158.777 204.594 158.534C204.348 158.288 204.226 157.992 204.23 157.648C204.226 157.307 204.348 157.015 204.594 156.773C204.84 156.527 205.135 156.403 205.48 156.403C205.813 156.403 206.103 156.527 206.349 156.773C206.599 157.015 206.726 157.307 206.73 157.648C206.726 157.875 206.666 158.083 206.548 158.273C206.435 158.462 206.283 158.614 206.094 158.727C205.908 158.841 205.704 158.898 205.48 158.898Z" fill="#38BDAE"/>
</g>
<path d="M233.21 165.159C232.392 165.159 231.665 165.019 231.028 164.739C230.396 164.458 229.896 164.068 229.528 163.568C229.161 163.068 228.966 162.491 228.943 161.835H231.08C231.098 162.15 231.203 162.424 231.392 162.659C231.581 162.89 231.833 163.07 232.148 163.199C232.462 163.328 232.814 163.392 233.205 163.392C233.621 163.392 233.991 163.32 234.312 163.176C234.634 163.028 234.886 162.824 235.068 162.562C235.25 162.301 235.339 162 235.335 161.659C235.339 161.307 235.248 160.996 235.062 160.727C234.877 160.458 234.608 160.248 234.256 160.097C233.907 159.945 233.487 159.869 232.994 159.869H231.966V158.244H232.994C233.4 158.244 233.754 158.174 234.057 158.034C234.364 157.894 234.604 157.697 234.778 157.443C234.953 157.186 235.038 156.888 235.034 156.551C235.038 156.222 234.964 155.936 234.812 155.693C234.665 155.447 234.455 155.256 234.182 155.119C233.913 154.983 233.597 154.915 233.233 154.915C232.877 154.915 232.547 154.979 232.244 155.108C231.941 155.237 231.697 155.42 231.511 155.659C231.326 155.894 231.227 156.174 231.216 156.5H229.188C229.203 155.848 229.39 155.277 229.75 154.784C230.114 154.288 230.598 153.902 231.205 153.625C231.811 153.345 232.491 153.205 233.244 153.205C234.021 153.205 234.695 153.35 235.267 153.642C235.843 153.93 236.288 154.318 236.602 154.807C236.917 155.295 237.074 155.835 237.074 156.426C237.078 157.081 236.884 157.631 236.494 158.074C236.108 158.517 235.6 158.807 234.972 158.943V159.034C235.79 159.148 236.417 159.451 236.852 159.943C237.292 160.432 237.509 161.04 237.506 161.767C237.506 162.419 237.32 163.002 236.949 163.517C236.581 164.028 236.074 164.43 235.426 164.722C234.782 165.013 234.044 165.159 233.21 165.159Z" fill="#38BDAE"/>
</g>
<g clip-path="url(#clip8_877_296)">
<g clip-path="url(#clip9_877_296)">
<path d="M34 196.666V189.166" stroke="#A17BCD" stroke-width="2" stroke-linecap="round" stroke-linejoin="round"/>
<path d="M35.6667 185.834C36.5507 185.834 37.3986 186.185 38.0237 186.81C38.6488 187.435 39 188.283 39 189.167V191.667C39 192.993 38.4732 194.265 37.5355 195.203C36.5979 196.141 35.3261 196.667 34 196.667C32.6739 196.667 31.4021 196.141 30.4645 195.203C29.5268 194.265 29 192.993 29 191.667V189.167C29 188.283 29.3512 187.435 29.9763 186.81C30.6014 186.185 31.4493 185.834 32.3333 185.834H35.6667Z" stroke="#A17BCD" stroke-width="2" stroke-linecap="round" stroke-linejoin="round"/>
<path d="M35.7666 183.233L37.3333 181.666" stroke="#A17BCD" stroke-width="2" stroke-linecap="round" stroke-linejoin="round"/>
<path d="M41.5 197.499C41.5009 196.642 41.1715 195.817 40.5803 195.197C39.989 194.576 39.1813 194.207 38.325 194.166" stroke="#A17BCD" stroke-width="2" stroke-linecap="round" stroke-linejoin="round"/>
<path d="M41.5001 184.166C41.4991 184.984 41.1971 185.774 40.6515 186.384C40.106 186.994 39.355 187.382 38.5417 187.474" stroke="#A17BCD" stroke-width="2" stroke-linecap="round" stroke-linejoin="round"/>
<path d="M42.3333 190.834H39" stroke="#A17BCD" stroke-width="2" stroke-linecap="round" stroke-linejoin="round"/>
<path d="M26.5 197.499C26.499 196.642 26.8284 195.817 27.4197 195.197C28.011 194.576 28.8187 194.207 29.675 194.166" stroke="#A17BCD" stroke-width="2" stroke-linecap="round" stroke-linejoin="round"/>
<path d="M26.5 184.166C26.5009 184.984 26.803 185.774 27.3485 186.384C27.8941 186.994 28.6451 187.382 29.4583 187.474" stroke="#A17BCD" stroke-width="2" stroke-linecap="round" stroke-linejoin="round"/>
<path d="M29.0001 190.834H25.6667" stroke="#A17BCD" stroke-width="2" stroke-linecap="round" stroke-linejoin="round"/>
<path d="M30.6667 181.666L32.2334 183.233" stroke="#A17BCD" stroke-width="2" stroke-linecap="round" stroke-linejoin="round"/>
<path d="M31.5 185.942V185C31.5 184.337 31.7634 183.701 32.2322 183.232C32.7011 182.763 33.337 182.5 34 182.5C34.663 182.5 35.2989 182.763 35.7678 183.232C36.2366 183.701 36.5 184.337 36.5 185V185.942" stroke="#A17BCD" stroke-width="2" stroke-linecap="round" stroke-linejoin="round"/>
<path d="M55.1477 195V183.364H59.6023C60.4432 183.364 61.142 183.496 61.6989 183.761C62.2595 184.023 62.678 184.381 62.9545 184.835C63.2348 185.29 63.375 185.805 63.375 186.381C63.375 186.854 63.2841 187.259 63.1023 187.597C62.9205 187.93 62.6761 188.201 62.3693 188.409C62.0625 188.617 61.7197 188.767 61.3409 188.858V188.972C61.7538 188.994 62.1496 189.121 62.5284 189.352C62.911 189.58 63.2235 189.902 63.4659 190.318C63.7083 190.735 63.8295 191.239 63.8295 191.83C63.8295 192.432 63.6837 192.973 63.392 193.455C63.1004 193.932 62.661 194.309 62.0739 194.585C61.4867 194.862 60.7481 195 59.858 195H55.1477ZM57.2557 193.239H59.5227C60.2879 193.239 60.839 193.093 61.1761 192.801C61.517 192.506 61.6875 192.127 61.6875 191.665C61.6875 191.32 61.6023 191.009 61.4318 190.733C61.2614 190.453 61.0189 190.233 60.7045 190.074C60.3902 189.911 60.0152 189.83 59.5795 189.83H57.2557V193.239ZM57.2557 188.312H59.3409C59.7045 188.312 60.0322 188.246 60.3239 188.114C60.6155 187.977 60.8447 187.786 61.0114 187.54C61.1818 187.29 61.267 186.994 61.267 186.653C61.267 186.203 61.108 185.831 60.7898 185.54C60.4754 185.248 60.0076 185.102 59.3864 185.102H57.2557V188.312ZM71.1349 191.33V186.273H73.1918V195H71.1974V193.449H71.1065C70.9096 193.937 70.5857 194.337 70.1349 194.648C69.688 194.958 69.1368 195.114 68.4815 195.114C67.9096 195.114 67.4039 194.987 66.9645 194.733C66.5289 194.475 66.188 194.102 65.9418 193.614C65.6955 193.121 65.5724 192.527 65.5724 191.83V186.273H67.6293V191.511C67.6293 192.064 67.7808 192.504 68.0838 192.83C68.3868 193.155 68.7846 193.318 69.277 193.318C69.58 193.318 69.8736 193.244 70.1577 193.097C70.4418 192.949 70.6747 192.729 70.8565 192.438C71.0421 192.142 71.1349 191.773 71.1349 191.33ZM79.1023 198.455C78.3636 198.455 77.7292 198.354 77.1989 198.153C76.6686 197.956 76.2424 197.691 75.9205 197.358C75.5985 197.025 75.375 196.655 75.25 196.25L77.1023 195.801C77.1856 195.972 77.3068 196.14 77.4659 196.307C77.625 196.477 77.839 196.617 78.108 196.727C78.3807 196.841 78.7235 196.898 79.1364 196.898C79.7197 196.898 80.2027 196.756 80.5852 196.472C80.9678 196.191 81.1591 195.729 81.1591 195.085V193.432H81.0568C80.9508 193.644 80.7955 193.862 80.5909 194.085C80.3902 194.309 80.1231 194.496 79.7898 194.648C79.4602 194.799 79.0455 194.875 78.5455 194.875C77.875 194.875 77.267 194.718 76.7216 194.403C76.1799 194.085 75.7481 193.612 75.4261 192.983C75.108 192.35 74.9489 191.559 74.9489 190.608C74.9489 189.65 75.108 188.841 75.4261 188.182C75.7481 187.519 76.1818 187.017 76.7273 186.676C77.2727 186.331 77.8807 186.159 78.5511 186.159C79.0625 186.159 79.483 186.246 79.8125 186.42C80.1458 186.591 80.411 186.797 80.608 187.04C80.8049 187.278 80.9545 187.504 81.0568 187.716H81.1705V186.273H83.1989V195.142C83.1989 195.888 83.0208 196.506 82.6648 196.994C82.3087 197.483 81.822 197.848 81.2045 198.091C80.5871 198.333 79.8864 198.455 79.1023 198.455ZM79.1193 193.261C79.5549 193.261 79.9261 193.155 80.233 192.943C80.5398 192.731 80.7727 192.426 80.9318 192.028C81.0909 191.631 81.1705 191.153 81.1705 190.597C81.1705 190.047 81.0909 189.566 80.9318 189.153C80.7765 188.741 80.5455 188.42 80.2386 188.193C79.9356 187.962 79.5625 187.847 79.1193 187.847C78.661 187.847 78.2784 187.966 77.9716 188.205C77.6648 188.443 77.4337 188.771 77.2784 189.188C77.1231 189.6 77.0455 190.07 77.0455 190.597C77.0455 191.131 77.1231 191.598 77.2784 192C77.4375 192.398 77.6705 192.708 77.9773 192.932C78.2879 193.152 78.6686 193.261 79.1193 193.261ZM89.3665 195V183.364H93.821C94.6619 183.364 95.3608 183.496 95.9176 183.761C96.4782 184.023 96.8968 184.381 97.1733 184.835C97.4536 185.29 97.5938 185.805 97.5938 186.381C97.5938 186.854 97.5028 187.259 97.321 187.597C97.1392 187.93 96.8949 188.201 96.5881 188.409C96.2812 188.617 95.9384 188.767 95.5597 188.858V188.972C95.9725 188.994 96.3684 189.121 96.7472 189.352C97.1297 189.58 97.4422 189.902 97.6847 190.318C97.9271 190.735 98.0483 191.239 98.0483 191.83C98.0483 192.432 97.9025 192.973 97.6108 193.455C97.3191 193.932 96.8797 194.309 96.2926 194.585C95.7055 194.862 94.9669 195 94.0767 195H89.3665ZM91.4744 193.239H93.7415C94.5066 193.239 95.0578 193.093 95.3949 192.801C95.7358 192.506 95.9062 192.127 95.9062 191.665C95.9062 191.32 95.821 191.009 95.6506 190.733C95.4801 190.453 95.2377 190.233 94.9233 190.074C94.6089 189.911 94.2339 189.83 93.7983 189.83H91.4744V193.239ZM91.4744 188.312H93.5597C93.9233 188.312 94.2509 188.246 94.5426 188.114C94.8343 187.977 95.0634 187.786 95.2301 187.54C95.4006 187.29 95.4858 186.994 95.4858 186.653C95.4858 186.203 95.3267 185.831 95.0085 185.54C94.6941 185.248 94.2263 185.102 93.6051 185.102H91.4744V188.312ZM103.598 195.17C102.746 195.17 102.007 194.983 101.382 194.608C100.757 194.233 100.272 193.708 99.9276 193.034C99.5866 192.36 99.4162 191.572 99.4162 190.67C99.4162 189.769 99.5866 188.979 99.9276 188.301C100.272 187.623 100.757 187.097 101.382 186.722C102.007 186.347 102.746 186.159 103.598 186.159C104.45 186.159 105.189 186.347 105.814 186.722C106.439 187.097 106.922 187.623 107.263 188.301C107.607 188.979 107.78 189.769 107.78 190.67C107.78 191.572 107.607 192.36 107.263 193.034C106.922 193.708 106.439 194.233 105.814 194.608C105.189 194.983 104.45 195.17 103.598 195.17ZM103.609 193.523C104.071 193.523 104.458 193.396 104.768 193.142C105.079 192.884 105.31 192.54 105.462 192.108C105.617 191.676 105.695 191.195 105.695 190.665C105.695 190.131 105.617 189.648 105.462 189.216C105.31 188.78 105.079 188.434 104.768 188.176C104.458 187.919 104.071 187.79 103.609 187.79C103.136 187.79 102.742 187.919 102.428 188.176C102.117 188.434 101.884 188.78 101.729 189.216C101.577 189.648 101.501 190.131 101.501 190.665C101.501 191.195 101.577 191.676 101.729 192.108C101.884 192.54 102.117 192.884 102.428 193.142C102.742 193.396 103.136 193.523 103.609 193.523ZM115.088 191.33V186.273H117.145V195H115.151V193.449H115.06C114.863 193.937 114.539 194.337 114.088 194.648C113.641 194.958 113.09 195.114 112.435 195.114C111.863 195.114 111.357 194.987 110.918 194.733C110.482 194.475 110.141 194.102 109.895 193.614C109.649 193.121 109.526 192.527 109.526 191.83V186.273H111.582V191.511C111.582 192.064 111.734 192.504 112.037 192.83C112.34 193.155 112.738 193.318 113.23 193.318C113.533 193.318 113.827 193.244 114.111 193.097C114.395 192.949 114.628 192.729 114.81 192.438C114.995 192.142 115.088 191.773 115.088 191.33ZM121.317 189.886V195H119.26V186.273H121.226V187.756H121.328C121.529 187.267 121.849 186.879 122.288 186.591C122.732 186.303 123.279 186.159 123.93 186.159C124.533 186.159 125.057 186.288 125.504 186.545C125.955 186.803 126.304 187.176 126.55 187.665C126.8 188.153 126.923 188.746 126.919 189.443V195H124.862V189.761C124.862 189.178 124.711 188.722 124.408 188.392C124.108 188.062 123.694 187.898 123.163 187.898C122.804 187.898 122.483 187.977 122.203 188.136C121.927 188.292 121.709 188.517 121.55 188.812C121.394 189.108 121.317 189.466 121.317 189.886ZM133.368 186.273V187.864H128.351V186.273H133.368ZM129.589 184.182H131.646V192.375C131.646 192.652 131.688 192.864 131.771 193.011C131.858 193.155 131.972 193.254 132.112 193.307C132.252 193.36 132.408 193.386 132.578 193.386C132.707 193.386 132.824 193.377 132.93 193.358C133.04 193.339 133.124 193.322 133.18 193.307L133.527 194.915C133.417 194.953 133.26 194.994 133.055 195.04C132.855 195.085 132.608 195.112 132.317 195.119C131.802 195.134 131.338 195.057 130.925 194.886C130.512 194.712 130.184 194.443 129.942 194.08C129.703 193.716 129.586 193.261 129.589 192.716V184.182ZM136.366 198.273C136.086 198.273 135.827 198.25 135.588 198.205C135.353 198.163 135.166 198.114 135.026 198.057L135.503 196.455C135.802 196.542 136.069 196.583 136.304 196.58C136.539 196.576 136.745 196.502 136.923 196.358C137.105 196.218 137.259 195.983 137.384 195.653L137.56 195.182L134.395 186.273H136.577L138.588 192.864H138.679L140.696 186.273H142.884L139.389 196.057C139.226 196.519 139.01 196.915 138.741 197.244C138.473 197.578 138.143 197.831 137.753 198.006C137.366 198.184 136.904 198.273 136.366 198.273ZM145.574 195.125C145.229 195.125 144.934 195.004 144.688 194.761C144.441 194.519 144.32 194.223 144.324 193.875C144.32 193.534 144.441 193.242 144.688 193C144.934 192.758 145.229 192.636 145.574 192.636C145.907 192.636 146.197 192.758 146.443 193C146.693 193.242 146.82 193.534 146.824 193.875C146.82 194.106 146.759 194.316 146.642 194.506C146.528 194.695 146.377 194.847 146.188 194.96C146.002 195.07 145.797 195.125 145.574 195.125ZM145.574 188.898C145.229 188.898 144.934 188.777 144.688 188.534C144.441 188.288 144.32 187.992 144.324 187.648C144.32 187.307 144.441 187.015 144.688 186.773C144.934 186.527 145.229 186.403 145.574 186.403C145.907 186.403 146.197 186.527 146.443 186.773C146.693 187.015 146.82 187.307 146.824 187.648C146.82 187.875 146.759 188.083 146.642 188.273C146.528 188.462 146.377 188.614 146.188 188.727C146.002 188.841 145.797 188.898 145.574 188.898Z" fill="#38BDAE"/>
</g>
<path d="M233.335 195.222C232.4 195.222 231.597 194.985 230.926 194.511C230.259 194.034 229.746 193.347 229.386 192.449C229.03 191.547 228.852 190.462 228.852 189.193C228.856 187.924 229.036 186.845 229.392 185.955C229.752 185.061 230.265 184.379 230.932 183.909C231.602 183.439 232.403 183.205 233.335 183.205C234.267 183.205 235.068 183.439 235.739 183.909C236.409 184.379 236.922 185.061 237.278 185.955C237.638 186.848 237.818 187.928 237.818 189.193C237.818 190.466 237.638 191.553 237.278 192.455C236.922 193.352 236.409 194.038 235.739 194.511C235.072 194.985 234.271 195.222 233.335 195.222ZM233.335 193.443C234.063 193.443 234.636 193.085 235.057 192.369C235.481 191.65 235.693 190.591 235.693 189.193C235.693 188.269 235.597 187.492 235.403 186.864C235.21 186.235 234.938 185.761 234.585 185.443C234.233 185.121 233.816 184.96 233.335 184.96C232.612 184.96 232.04 185.32 231.619 186.04C231.199 186.756 230.987 187.807 230.983 189.193C230.979 190.121 231.072 190.902 231.261 191.534C231.455 192.167 231.727 192.644 232.08 192.966C232.432 193.284 232.85 193.443 233.335 193.443Z" fill="#38BDAE"/>
</g>
<defs>
<clipPath id="clip0_877_296">
<rect width="215" height="20" fill="white" transform="translate(24 60)"/>
</clipPath>
<clipPath id="clip1_877_296">
<rect width="215" height="20" fill="white" transform="translate(24 90)"/>
</clipPath>
<clipPath id="clip2_877_296">
<rect width="119" height="20" fill="white" transform="translate(24 90)"/>
</clipPath>
<clipPath id="clip3_877_296">
<rect width="215" height="20" fill="white" transform="translate(24 120)"/>
</clipPath>
<clipPath id="clip4_877_296">
<rect width="141" height="20" fill="white" transform="translate(24 120)"/>
</clipPath>
<clipPath id="clip5_877_296">
<rect width="20" height="20" fill="white" transform="translate(24 120)"/>
</clipPath>
<clipPath id="clip6_877_296">
<rect width="215" height="20" fill="white" transform="translate(24 150)"/>
</clipPath>
<clipPath id="clip7_877_296">
<rect width="184" height="20" fill="white" transform="translate(24 150)"/>
</clipPath>
<clipPath id="clip8_877_296">
<rect width="215" height="20" fill="white" transform="translate(24 180)"/>
</clipPath>
<clipPath id="clip9_877_296">
<rect width="124" height="20" fill="white" transform="translate(24 180)"/>
</clipPath>
</defs>
</svg>
